<?xml version="1.0" encoding="UTF-8" standalone="no"?>
<svg
   xmlns:dc="http://purl.org/dc/elements/1.1/"
   xmlns:cc="http://creativecommons.org/ns#"
   xmlns:rdf="http://www.w3.org/1999/02/22-rdf-syntax-ns#"
   xmlns:svg="http://www.w3.org/2000/svg"
   xmlns="http://www.w3.org/2000/svg"
   viewBox="0 0 4000 2666.6667"
   height="2666.6667"
   width="4000"
   xml:space="preserve"
   id="svg2"
   version="1.1"><metadata
     id="metadata8"><rdf:RDF><cc:Work
         rdf:about=""><dc:format>image/svg+xml</dc:format><dc:type
           rdf:resource="http://purl.org/dc/dcmitype/StillImage" /></cc:Work></rdf:RDF></metadata><defs
     id="defs6"><clipPath
       id="clipPath208"
       clipPathUnits="userSpaceOnUse"><path
         id="path206"
         d="M 19296.3,7899.3 H 13971.5 V 14468 h 5324.8 z" /></clipPath></defs><g
     transform="matrix(1.3333333,0,0,-1.3333333,0,2666.6667)"
     id="g10"><g
       transform="scale(0.1)"
       id="g12"><g
         transform="scale(1.84018)"
         id="g14"><path
           id="path16"
           style="fill:#ffffff;fill-opacity:1;fill-rule:nonzero;stroke:none"
           d="M 16300,2.66405 H 2.71712 V 10865.8 H 16300 V 2.66405" /></g><g
         transform="scale(1.84049)"
         id="g18"><path
           id="path20"
           style="fill:#000000;fill-opacity:1;fill-rule:nonzero;stroke:none"
           d="M 5.43121,5.38027 H 16294.6 V 10861.3 H 5.43121 Z M 16300,0 H 0 V 10866.7 H 16300 V 0" /></g><g
         transform="scale(1.7489)"
         id="g22"><path
           id="path24"
           style="fill:#1d2238;fill-opacity:1;fill-rule:nonzero;stroke:none"
           d="M 16300,948.767 H 627.731 v 35.565 H 16300 v -35.565" /></g><path
         id="path26"
         style="fill:#f1f2f5;fill-opacity:1;fill-rule:nonzero;stroke:none"
         d="m 5733.34,9706.5 c -333.21,-10.6 -605.52,261.7 -594.89,594.9 9.63,301.8 255.41,547.6 557.17,557.2 333.22,10.7 605.55,-261.7 594.9,-594.9 -9.63,-301.8 -255.41,-547.5 -557.18,-557.2 z m 2010.73,218.9 v 714.4 c 0,66.6 -54,120.6 -120.61,120.6 H 7331.7 c -33.88,114.8 -79.56,224.6 -135.82,327.8 l 206.32,206.4 c 47.1,47.1 47.1,123.4 0,170.5 l -505.16,505.2 c -47.1,47.1 -123.47,47.1 -170.57,0 L 6520.15,11764 c -103.22,56.2 -212.99,101.9 -327.84,135.8 v 291.8 c 0,66.6 -54,120.6 -120.62,120.6 h -714.4 c -66.61,0 -120.62,-54 -120.62,-120.6 v -291.8 c -114.84,-33.9 -224.62,-79.6 -327.83,-135.8 l -206.32,206.3 c -47.11,47.1 -123.47,47.1 -170.58,0 l -505.16,-505.2 c -47.1,-47.1 -47.1,-123.4 0,-170.5 l 206.32,-206.4 c -56.25,-103.2 -101.94,-213 -135.82,-327.8 h -291.75 c -66.62,0 -120.62,-54 -120.62,-120.6 v -714.4 c 0,-66.6 54,-120.6 120.62,-120.6 h 291.75 c 33.88,-114.9 79.57,-224.7 135.82,-327.9 l -206.32,-206.3 c -47.1,-47.1 -47.1,-123.5 0,-170.6 l 505.16,-505.1 c 47.11,-47.1 123.47,-47.1 170.58,0 l 206.32,206.3 c 103.21,-56.3 212.99,-101.9 327.83,-135.8 v -291.8 c 0,-66.6 54.01,-120.6 120.62,-120.6 h 714.4 c 66.62,0 120.62,54 120.62,120.6 v 291.8 c 114.85,33.9 224.62,79.5 327.84,135.8 l 206.32,-206.3 c 47.1,-47.1 123.47,-47.1 170.57,0 L 7402.2,9100 c 47.1,47.1 47.1,123.5 0,170.6 l -206.32,206.3 c 56.26,103.2 101.94,213 135.82,327.9 h 291.76 c 66.61,0 120.61,54 120.61,120.6" /><path
         id="path28"
         style="fill:#f1f2f5;fill-opacity:1;fill-rule:nonzero;stroke:none"
         d="m 6451.72,6164.5 c -229.3,-7.3 -416.69,180.1 -409.38,409.4 6.63,207.7 175.76,376.8 383.42,383.4 229.32,7.4 416.72,-180.1 409.4,-409.4 -6.64,-207.6 -175.77,-376.8 -383.44,-383.4 z m 1383.7,150.6 v 491.6 c 0,45.9 -37.16,83 -83,83 h -200.77 c -23.31,79.1 -54.75,154.6 -93.46,225.6 l 141.98,142 c 32.41,32.4 32.41,85 0,117.4 l -347.64,347.6 c -32.41,32.5 -84.96,32.5 -117.38,0 l -141.98,-141.9 c -71.03,38.7 -146.57,70.1 -225.61,93.4 v 200.8 c 0,45.8 -37.16,83 -83,83 h -491.62 c -45.84,0 -83,-37.2 -83,-83 v -200.8 c -79.03,-23.3 -154.58,-54.7 -225.61,-93.4 l -141.98,141.9 c -32.41,32.5 -84.97,32.5 -117.38,0 l -347.63,-347.6 c -32.42,-32.4 -32.42,-85 0,-117.4 l 141.98,-142 c -38.71,-71 -70.15,-146.5 -93.47,-225.6 h -200.77 c -45.84,0 -83,-37.1 -83,-83 v -491.6 c 0,-45.8 37.16,-83 83,-83 h 200.77 c 23.32,-79 54.76,-154.6 93.47,-225.6 l -141.98,-142 c -32.42,-32.4 -32.42,-84.9 0,-117.4 l 347.63,-347.6 c 32.41,-32.4 84.97,-32.4 117.38,0 l 141.98,142 c 71.03,-38.7 146.58,-70.2 225.61,-93.5 v -200.7 c 0,-45.9 37.16,-83 83,-83 h 491.62 c 45.84,0 83,37.1 83,83 V 5448 c 79.04,23.3 154.58,54.8 225.61,93.5 l 141.98,-142 c 32.42,-32.4 84.97,-32.4 117.38,0 l 347.64,347.6 c 32.41,32.5 32.41,85 0,117.4 l -141.98,142 c 38.71,71 70.15,146.6 93.46,225.6 h 200.77 c 45.84,0 83,37.2 83,83" /><path
         id="path30"
         style="fill:#f1f2f5;fill-opacity:1;fill-rule:nonzero;stroke:none"
         d="m 3673.89,7284.7 c -160.17,-5.2 -291.06,125.7 -285.95,285.9 4.63,145 122.77,263.2 267.82,267.8 160.16,5.1 291.06,-125.8 285.95,-285.9 -4.64,-145.1 -122.78,-263.2 -267.82,-267.8 z m 966.48,105.1 v 343.4 c 0,32.1 -25.95,58 -57.97,58 h -140.24 c -16.28,55.2 -38.24,108 -65.28,157.6 l 99.17,99.2 c 22.64,22.6 22.64,59.3 0,81.9 l -242.82,242.9 c -22.64,22.6 -59.34,22.6 -81.98,0 l -99.17,-99.2 c -49.62,27 -102.38,49 -157.58,65.3 v 140.2 c 0,32 -25.96,58 -57.98,58 h -343.39 c -32.02,0 -57.97,-26 -57.97,-58 v -140.2 c -55.2,-16.3 -107.97,-38.3 -157.58,-65.3 l -99.17,99.2 c -22.64,22.6 -59.35,22.6 -81.99,0 L 2853.6,8129.9 c -22.64,-22.6 -22.64,-59.3 0,-81.9 l 99.17,-99.2 c -27.03,-49.6 -48.99,-102.4 -65.28,-157.6 h -140.24 c -32.01,0 -57.97,-25.9 -57.97,-58 v -343.4 c 0,-32 25.96,-57.9 57.97,-57.9 h 140.24 c 16.29,-55.2 38.25,-108 65.28,-157.6 l -99.17,-99.2 c -22.64,-22.6 -22.64,-59.3 0,-82 l 242.82,-242.8 c 22.64,-22.6 59.35,-22.6 81.99,0 l 99.17,99.2 c 49.61,-27.1 102.38,-49 157.58,-65.3 V 6644 c 0,-32.1 25.95,-58 57.97,-58 h 343.39 c 32.02,0 57.98,25.9 57.98,58 v 140.2 c 55.2,16.3 107.96,38.2 157.58,65.3 l 99.17,-99.2 c 22.64,-22.6 59.34,-22.6 81.98,0 l 242.82,242.8 c 22.64,22.7 22.64,59.4 0,82 l -99.17,99.2 c 27.04,49.6 49,102.4 65.28,157.6 h 140.24 c 32.02,0 57.97,25.9 57.97,57.9" /><g
         transform="scale(1.65127)"
         id="g32"><path
           id="path34"
           style="fill:#f1f2f5;fill-opacity:1;fill-rule:nonzero;stroke:none"
           d="M 16300,2855.38 H 9676.91 V 10690.2 H 16300 V 2855.38" /></g><g
         transform="scale(1.65303)"
         id="g36"><path
           id="path38"
           style="fill:#1d2238;fill-opacity:1;fill-rule:nonzero;stroke:none"
           d="m 16282.6,2852.34 -10.1,3917.41 -7.2,3909.05 17.3,-17.3 -3307.9,-2.9 -3308.09,-0.9 21.11,21.1 -1.45,-3913.26 -4.05,-3913.2 -15.61,15.54 3304.39,-6.77 z m 0,0 -3304.3,-8.78 -3311.69,-6.83 h -15.55 l -0.06,15.61 -4.05,3913.2 -1.45,3913.26 v 21.1 h 21.11 l 3308.09,-0.9 3307.9,-2.9 h 17.4 l -0.1,-17.3 -7.1,-3917.45 -10.2,-3909.01" /></g><g
         transform="scale(1.40337)"
         id="g40"><path
           id="path42"
           style="fill:#4a4e60;fill-opacity:1;fill-rule:nonzero;stroke:none"
           d="m 16300,4950.21 c 0,-561.79 -455.4,-1017.26 -1017.2,-1017.26 -561.9,0 -1017.3,455.47 -1017.3,1017.26 0,561.79 455.4,1017.27 1017.3,1017.27 561.8,0 1017.2,-455.48 1017.2,-1017.27" /></g><g
         transform="scale(1.37374)"
         id="g44"><path
           id="path46"
           style="fill:#f0c36a;fill-opacity:1;fill-rule:nonzero;stroke:none"
           d="m 16093.1,5377.38 h -160 v 105.99 c 0,34.36 -27.8,62.16 -62.1,62.16 h -517 c -34.3,0 -62.1,-27.8 -62.1,-62.16 v -105.99 h -160 c -114.2,0 -206.9,-92.59 -206.9,-206.81 v -361.49 c 0,-114.22 92.7,-206.89 206.9,-206.89 h 961.2 c 114.3,0 206.9,92.67 206.9,206.89 v 361.49 c 0,114.22 -92.6,206.81 -206.9,206.81" /></g><g
         transform="scale(1.33977)"
         id="g48"><path
           id="path50"
           style="fill:#ffffff;fill-opacity:1;fill-rule:nonzero;stroke:none"
           d="m 16300,5134.15 c 0,-161.14 -130.6,-291.76 -291.7,-291.76 -161.1,0 -291.8,130.62 -291.8,291.76 0,161.15 130.7,291.77 291.8,291.77 161.1,0 291.7,-130.62 291.7,-291.77" /></g><g
         transform="scale(1.11902)"
         id="g52"><path
           id="path54"
           style="fill:#4a4e60;fill-opacity:1;fill-rule:nonzero;stroke:none"
           d="m 15218.3,13683.1 h -174.6 v 1256.3 H 16300 v -174.6 h -1081.7 v -1081.7" /></g><g
         transform="scale(1.59287)"
         id="g56"><path
           id="path58"
           style="fill:#4a4e60;fill-opacity:1;fill-rule:nonzero;stroke:none"
           d="m 16300,9612.63 h -122.7 v 759.87 h -759.9 v 122.7 h 882.6 v -882.57" /></g><g
         transform="scale(1.59882)"
         id="g60"><path
           id="path62"
           style="fill:#4a4e60;fill-opacity:1;fill-rule:nonzero;stroke:none"
           d="m 16300,5676.45 h -879.3 v 122.22 h 757.1 v 757.06 h 122.2 v -879.28" /></g><g
         transform="scale(1.12496)"
         id="g64"><path
           id="path66"
           style="fill:#1d2238;fill-opacity:1;fill-rule:nonzero;stroke:none"
           d="m 16300,8067.47 h -1249.6 v 1249.64 h 173.7 V 8241.16 H 16300 v -173.69" /></g><g
         transform="scale(1.42924)"
         id="g68"><path
           id="path70"
           style="fill:#ffffff;fill-opacity:1;fill-rule:nonzero;stroke:none"
           d="m 16300,9430.85 c 0,-335.23 -271.8,-606.99 -607,-606.99 -335.2,0 -607,271.76 -607,606.99 0,335.23 271.8,606.95 607,606.95 335.2,0 607,-271.72 607,-606.95" /></g><g
         transform="scale(1.56713)"
         id="g72"><path
           id="path74"
           style="fill:#ffffff;fill-opacity:1;fill-rule:nonzero;stroke:none"
           d="m 16300,6239.73 h -5755.3 l 1976.2,1817.74 c 143,131.56 363.4,129.99 504.6,-3.6 l 1103.7,-1044.71 559.7,478.96 c 152.3,130.36 380.8,115.6 515.1,-33.29 l 1096,-1215.1" /></g><g
         transform="scale(1.20705)"
         id="g76"><path
           id="path78"
           style="fill:#1d2238;fill-opacity:1;fill-rule:nonzero;stroke:none"
           d="m 15681.8,1400.44 h -5236.7 c -341.4,0 -618.24,276.79 -618.24,618.29 V 12631.5 c 0,341.5 276.84,618.3 618.24,618.3 h 5236.7 c 341.4,0 618.2,-276.8 618.2,-618.3 V 2018.73 c 0,-341.5 -276.8,-618.29 -618.2,-618.29" /></g><g
         transform="scale(1.18382)"
         id="g80"><path
           id="path82"
           style="fill:#f1f2f5;fill-opacity:1;fill-rule:nonzero;stroke:none"
           d="M 16300,2421.9 H 10339.6 V 12591.6 H 16300 V 2421.9" /></g><g
         transform="scale(1.0121)"
         id="g84"><path
           id="path86"
           style="fill:#ffffff;fill-opacity:1;fill-rule:nonzero;stroke:none"
           d="m 16199.9,15221.3 h -1240.3 c -55.2,0 -100.1,44.7 -100.1,100 v 0 c 0,55.2 44.9,100 100.1,100 h 1240.3 c 55.2,0 100.1,-44.8 100.1,-100 v 0 c 0,-55.3 -44.9,-100 -100.1,-100" /></g><path
         id="path88"
         style="fill:#f0c36a;fill-opacity:1;fill-rule:nonzero;stroke:none"
         d="m 7993.62,11755.8 970.25,-489.2 108.86,-1053.8 -872.68,305.8 -206.43,1237.2" /><path
         id="path90"
         style="fill:#ffffff;fill-opacity:1;fill-rule:nonzero;stroke:none"
         d="m 9230.74,8815.7 -482.19,4428.4 6190.75,674.1 482.2,-4428.5 -6190.76,-674" /><path
         id="path92"
         style="fill:#d2d6e1;fill-opacity:1;fill-rule:nonzero;stroke:none"
         d="M 8760.07,13234.9 9240,8827.2 15409.9,9499 14930,13906.7 Z m 461.41,-4430.8 -484.46,4449.3 10.39,1.1 6201.09,675.2 484.5,-4449.2 -6211.52,-676.4" /><path
         id="path94"
         style="fill:#f0c36a;fill-opacity:1;fill-rule:nonzero;stroke:none"
         d="m 15215.9,9654.9 -5820,-633.7 -441.83,4057.8 5820.03,633.7 441.8,-4057.8" /><path
         id="path96"
         style="fill:#ffffff;fill-opacity:1;fill-rule:nonzero;stroke:none"
         d="m 9228.62,10557.5 1012.08,1224.8 c 246,297.8 684.1,346.1 989.1,109.1 l 1443.9,-1122.2 c 176,-136.8 427.6,-115.5 578.1,48.9 l 263.7,288 c 242.4,264.7 643.5,308.5 937.3,102.2 l 643.2,-451.4 119.9,-1102 -5820,-633.7 -167.28,1536.3" /><path
         id="path98"
         style="fill:#ffffff;fill-opacity:1;fill-rule:nonzero;stroke:none"
         d="m 13343.9,12451.9 c 28.4,-260.4 -159.7,-494.5 -420.2,-522.9 -260.4,-28.3 -494.5,159.8 -522.8,420.2 -28.4,260.4 159.7,494.5 420.2,522.9 260.4,28.3 494.5,-159.8 522.8,-420.2" /><path
         id="path100"
         style="fill:#edb248;fill-opacity:1;fill-rule:nonzero;stroke:none"
         d="m 8789.61,2449.6 934.51,-407.5 c 139.45,-60.8 228.52,-199.6 225.66,-351.7 v 0 l -2031.81,4.4 108.13,756.4 763.51,-1.6" /><path
         id="path102"
         style="fill:#1d2238;fill-opacity:1;fill-rule:nonzero;stroke:none"
         d="m 7918.26,1829.6 c 167.36,-9.7 334.73,-14.9 502.1,-18.6 83.68,-2.2 167.37,-2.9 251.05,-4.3 l 251.07,-1.7 251.07,0.6 c 83.69,1.1 167.38,1.3 251.07,3.2 167.39,2.9 334.77,7.5 502.17,16.5 -167.36,9.7 -334.72,15 -502.09,18.6 -83.69,2.3 -167.38,2.9 -251.06,4.3 l -251.06,1.7 -251.07,-0.7 c -83.69,-1 -167.38,-1.3 -251.08,-3.2 -167.38,-2.9 -334.77,-7.4 -502.17,-16.4" /><path
         id="path104"
         style="fill:#1d2238;fill-opacity:1;fill-rule:nonzero;stroke:none"
         d="m 8162.81,2130.1 c -0.22,-101.9 82.22,-184.7 184.13,-184.9 101.91,-0.3 184.7,82.2 184.92,184.1 0.22,101.9 -82.21,184.7 -184.12,184.9 -101.92,0.2 -184.71,-82.2 -184.93,-184.1" /><path
         id="path106"
         style="fill:#1d2238;fill-opacity:1;fill-rule:nonzero;stroke:none"
         d="m 9598.1,2115.8 c -23.96,9.9 -47.05,9.9 -69,6.5 -21.89,-3.8 -42.71,-12.2 -61.37,-24.4 -18.7,-12.1 -34.98,-28.9 -47.12,-48.5 -11.89,-19.8 -19.17,-43.6 -16.01,-68.8 l 3.9,-2.3 c 5.88,8 10.84,16.6 17.64,23.8 3.22,3.7 6.06,7.7 9.51,11.2 l 10.31,10.6 c 14.33,13.5 29.73,25.9 46.47,36.4 16.4,10.9 33.67,20.7 51.59,29.1 8.97,4.2 18.07,8.2 27.31,11.7 9.13,3.9 18.5,7.3 27.87,10.3 l -1.1,4.4" /><path
         id="path108"
         style="fill:#1d2238;fill-opacity:1;fill-rule:nonzero;stroke:none"
         d="m 9359.6,2217.5 c -23.95,10 -47.05,10 -69,6.5 -21.89,-3.8 -42.7,-12.1 -61.37,-24.3 -18.7,-12.1 -34.98,-28.9 -47.12,-48.5 -11.88,-19.8 -19.16,-43.6 -16.01,-68.9 l 3.91,-2.2 c 5.88,8 10.83,16.5 17.63,23.7 3.22,3.8 6.07,7.8 9.51,11.3 l 10.32,10.6 c 14.32,13.5 29.73,25.9 46.46,36.4 16.41,10.9 33.67,20.7 51.59,29.1 8.97,4.2 18.07,8.1 27.32,11.7 9.12,3.9 18.49,7.3 27.86,10.3 l -1.1,4.3" /><path
         id="path110"
         style="fill:#1d2238;fill-opacity:1;fill-rule:nonzero;stroke:none"
         d="m 9138.89,2309.9 c -23.95,9.9 -47.05,10 -69,6.5 -21.89,-3.8 -42.71,-12.1 -61.37,-24.4 -18.7,-12.1 -34.98,-28.8 -47.12,-48.4 -11.89,-19.8 -19.17,-43.7 -16.01,-68.9 l 3.9,-2.2 c 5.88,7.9 10.84,16.5 17.64,23.7 3.22,3.7 6.06,7.8 9.51,11.3 l 10.31,10.6 c 14.33,13.5 29.73,25.9 46.47,36.3 16.4,11 33.67,20.7 51.59,29.2 8.97,4.2 18.07,8.1 27.31,11.7 9.13,3.8 18.5,7.3 27.87,10.2 l -1.1,4.4" /><path
         id="path112"
         style="fill:#f0c36a;fill-opacity:1;fill-rule:nonzero;stroke:none"
         d="m 7571.8,2449.6 934.51,-407.5 c 139.45,-60.8 228.52,-199.6 225.66,-351.7 v 0 l -2031.81,4.4 108.13,756.4 763.51,-1.6" /><path
         id="path114"
         style="fill:#1d2238;fill-opacity:1;fill-rule:nonzero;stroke:none"
         d="m 6700.46,1829.6 c 167.35,-9.7 334.72,-14.9 502.09,-18.6 83.68,-2.2 167.37,-2.9 251.06,-4.3 l 251.06,-1.7 251.07,0.6 c 83.69,1.1 167.38,1.3 251.07,3.2 167.39,2.9 334.77,7.5 502.17,16.5 -167.36,9.7 -334.72,15 -502.09,18.6 -83.69,2.3 -167.37,2.9 -251.06,4.3 l -251.06,1.7 -251.07,-0.7 c -83.69,-1 -167.38,-1.3 -251.07,-3.2 -167.39,-2.9 -334.78,-7.4 -502.17,-16.4" /><path
         id="path116"
         style="fill:#1d2238;fill-opacity:1;fill-rule:nonzero;stroke:none"
         d="m 6945,2130.1 c -0.22,-101.9 82.22,-184.7 184.13,-184.9 101.91,-0.3 184.7,82.2 184.92,184.1 0.22,101.9 -82.21,184.7 -184.12,184.9 -101.91,0.2 -184.71,-82.2 -184.93,-184.1" /><path
         id="path118"
         style="fill:#1d2238;fill-opacity:1;fill-rule:nonzero;stroke:none"
         d="m 8380.29,2115.8 c -23.96,9.9 -47.05,9.9 -69,6.5 -21.89,-3.8 -42.71,-12.2 -61.37,-24.4 -18.7,-12.1 -34.98,-28.9 -47.12,-48.5 -11.89,-19.8 -19.17,-43.6 -16.01,-68.8 l 3.9,-2.3 c 5.88,8 10.84,16.6 17.64,23.8 3.22,3.7 6.06,7.7 9.51,11.2 l 10.32,10.6 c 14.32,13.5 29.72,25.9 46.46,36.4 16.41,10.9 33.67,20.7 51.59,29.1 8.97,4.2 18.07,8.2 27.32,11.7 9.12,3.9 18.49,7.3 27.86,10.3 l -1.1,4.4" /><path
         id="path120"
         style="fill:#1d2238;fill-opacity:1;fill-rule:nonzero;stroke:none"
         d="m 8141.79,2217.5 c -23.95,10 -47.05,10 -69,6.5 -21.88,-3.8 -42.7,-12.1 -61.36,-24.3 -18.7,-12.1 -34.99,-28.9 -47.13,-48.5 -11.88,-19.8 -19.16,-43.6 -16,-68.9 l 3.9,-2.2 c 5.88,8 10.83,16.5 17.63,23.7 3.22,3.8 6.07,7.8 9.51,11.3 l 10.32,10.6 c 14.32,13.5 29.73,25.9 46.46,36.4 16.41,10.9 33.67,20.7 51.59,29.1 8.97,4.2 18.08,8.1 27.32,11.7 9.13,3.9 18.5,7.3 27.87,10.3 l -1.11,4.3" /><path
         id="path122"
         style="fill:#1d2238;fill-opacity:1;fill-rule:nonzero;stroke:none"
         d="m 7921.08,2309.9 c -23.95,9.9 -47.05,10 -69,6.5 -21.89,-3.8 -42.7,-12.1 -61.37,-24.4 -18.7,-12.1 -34.98,-28.8 -47.12,-48.4 -11.89,-19.8 -19.17,-43.7 -16.01,-68.9 l 3.9,-2.2 c 5.88,7.9 10.84,16.5 17.64,23.7 3.22,3.7 6.07,7.8 9.51,11.3 l 10.32,10.6 c 14.32,13.5 29.73,25.9 46.46,36.3 16.41,11 33.67,20.7 51.59,29.2 8.97,4.2 18.07,8.1 27.32,11.7 9.12,3.8 18.49,7.3 27.86,10.2 l -1.1,4.4" /><path
         id="path124"
         style="fill:#1d2238;fill-opacity:1;fill-rule:nonzero;stroke:none"
         d="m 9112.72,2457.2 -182.49,3747.1 c -5.13,105.3 -17.6,210.1 -37.3,313.6 l -387.71,2036.5 -2350.13,183.8 c 0,0 -230.83,-938.8 242.12,-1842.5 l 243.49,-4468.2 1254.21,7.9 -0.17,14 1217.98,7.8" /><path
         id="path126"
         style="fill:#4a4e60;fill-opacity:1;fill-rule:nonzero;stroke:none"
         d="m 7706.4,8431.8 15.98,-187 14.93,-187 29.78,-374.1 54.68,-748.6 13.64,-187.1 12.44,-187.2 24.66,-374.5 49.25,-748.9 2.76,-46.9 c 0.82,-15.6 0.13,-31.2 0.27,-46.9 l -0.32,-93.8 -0.64,-187.6 -1.29,-375.3 -1.29,-375.3 -0.83,-187.6 -1.95,-187.7 -7.96,-750.5 -6.39,-375.2 -3.24,-187.6 -4.29,-187.6 h -3.36 l -0.84,1500.5 -0.42,750.3 -0.21,375.1 -0.1,187.5 -0.06,93.8 c -0.2,15.6 0.42,31.3 -0.46,46.9 l -2.94,46.8 -185.16,2995.3 3.36,0.2" /><path
         id="path128"
         style="fill:#1d2238;fill-opacity:1;fill-rule:nonzero;stroke:none"
         d="m 8688.64,13545.6 c 0,0 128.37,-141.4 163.6,-339.7 14.02,-78.9 -23.87,-158 -93.46,-197.7 v 0 l -388.43,537.4 h 318.29" /><path
         id="path130"
         style="fill:#ad6359;fill-opacity:1;fill-rule:nonzero;stroke:none"
         d="m 8141.33,13625.6 v 0 c -325.18,0 -591.45,-251.4 -615.5,-570.4 l -5.01,0.8 -181.78,-1134.2 c -0.2,-1.2 0.65,-2.5 1.89,-2.8 l 652.69,-163.2 67.27,419.8 c 26.35,-3.4 53.16,-5.4 80.44,-5.4 v 0 c 341.01,0 617.45,276.5 617.45,617.5 v 220.5 c 0,341 -276.44,617.4 -617.45,617.4" /><path
         id="path132"
         style="fill:#1d2238;fill-opacity:1;fill-rule:nonzero;stroke:none"
         d="m 8060.86,12175.4 c 0,0 -220.64,17 -377.82,220.5 0,0 54.89,-339.5 353.79,-370.4 0,0 5.37,24.6 24.03,149.9" /><path
         id="path134"
         style="fill:#1d2238;fill-opacity:1;fill-rule:nonzero;stroke:none"
         d="m 8518.05,13113.2 c 4.99,-16.2 8.56,-32.4 11.65,-48.6 1.76,-8.1 2.8,-16.1 4.11,-24.2 1.27,-8.1 2.6,-16.2 3.36,-24.3 1.89,-16.2 3.72,-32.3 4.54,-48.5 l 1.63,-24.3 0.54,-24.2 -27.39,27.4 c 10.31,0.1 20.61,0.7 30.91,0.4 5.29,-0.1 9.35,0 18.28,-0.7 7.79,-1 15.42,-3.1 22.63,-6.2 29.36,-12 47.23,-43.9 45.34,-73.6 -1.19,-14.9 -6.77,-29.1 -15.64,-40.4 -8.93,-11.2 -21.34,-18.8 -34.21,-22.6 -6.47,-1.9 -13.2,-2.3 -19.64,-2.1 -6.95,0.5 -11.51,1.7 -16.76,2.7 -10.3,2.4 -20.6,5 -30.91,8.1 l -0.42,0.1 c -0.81,0.3 -1.26,1.1 -1.01,1.9 0.19,0.7 0.79,1.1 1.43,1.1 l 30.91,0.4 c 5.14,0.1 10.39,0.1 15.23,0.5 4.9,0.7 9.67,2 14.24,3.8 18.33,7.6 30.9,26.8 30.56,46.5 0.14,19.7 -12.6,38.6 -30.79,45.9 -4.52,1.8 -9.27,2.9 -14.1,3.5 -4.72,0.3 -10,0.2 -15.14,0.2 l -30.91,0.1 h -3 l 0.02,3 c 0.43,64.7 0.26,129.4 1.43,194.1 0.01,0.8 0.71,1.5 1.55,1.4 0.67,0 1.23,-0.4 1.42,-1 l 0.14,-0.4" /><path
         id="path136"
         style="fill:#1d2238;fill-opacity:1;fill-rule:nonzero;stroke:none"
         d="m 8688.64,13108.5 c 0,-23.6 -19.19,-42.8 -42.86,-42.8 -23.67,0 -42.86,19.2 -42.86,42.8 0,23.7 19.19,42.9 42.86,42.9 23.67,0 42.86,-19.2 42.86,-42.9" /><path
         id="path138"
         style="fill:#ffffff;fill-opacity:1;fill-rule:nonzero;stroke:none"
         d="m 8610.08,12674.9 c 0,0 -71.06,103.6 -278.16,100.9 l 278.16,-100.9" /><path
         id="path140"
         style="fill:#1d2238;fill-opacity:1;fill-rule:nonzero;stroke:none"
         d="m 8537.65,13281.5 c -3.87,-16 29.34,-37.7 74.17,-48.6 44.82,-10.8 84.3,-6.7 88.17,9.3 3.86,16 -29.34,37.7 -74.17,48.6 -44.83,10.8 -84.3,6.7 -88.17,-9.3" /><path
         id="path142"
         style="fill:#1d2238;fill-opacity:1;fill-rule:nonzero;stroke:none"
         d="m 8283.25,13203.4 c -0.59,-16.4 36.31,-31 82.4,-32.7 46.09,-1.6 83.93,10.4 84.51,26.8 0.59,16.4 -36.31,31.1 -82.4,32.7 -46.09,1.6 -83.93,-10.3 -84.51,-26.8" /><path
         id="path144"
         style="fill:#1d2238;fill-opacity:1;fill-rule:nonzero;stroke:none"
         d="m 7530.6,13099.5 c 0,0 95.73,-41.4 67.99,-288.2 v 0 c 130.57,13.8 244.4,94.9 300.06,213.8 l 62.81,134.2 c 92.81,232.3 342.51,364.8 585.19,304 5.5,-1.4 10.84,-4.7 16.64,-4.4 300.18,16.4 296.16,269.6 296.16,269.6 h -13.55 c -177.68,0 -353.32,34.2 -519.48,97.2 -196.35,74.3 -519.21,126.7 -844.88,-122.5 -521.09,-398.8 -57.89,-1253.5 -57.89,-1253.5 l 106.95,649.8" /><path
         id="path146"
         style="fill:#ad6359;fill-opacity:1;fill-rule:nonzero;stroke:none"
         d="m 7352.72,12963.4 c 0,-84 55.04,-152.1 122.93,-152.1 67.9,0 122.94,68.1 122.94,152.1 0,84 -55.04,152.1 -122.94,152.1 -67.89,0 -122.93,-68.1 -122.93,-152.1" /><path
         id="path148"
         style="fill:#1d2238;fill-opacity:1;fill-rule:nonzero;stroke:none"
         d="m 7546.03,13005 c -11.29,9.2 -22.19,16.2 -33.24,19.1 -5.31,1.6 -10.51,2.5 -15.39,2.3 -4.84,-0.2 -9.33,-0.5 -13.51,-2.1 -16.05,-5.7 -28.21,-19.4 -35.28,-37.7 -1.98,-4.4 -3.08,-9.2 -4.3,-14.1 -0.37,-2.5 -1.04,-4.9 -1.3,-7.4 l -0.39,-3.9 -0.37,-2.7 c -0.19,-0.9 -0.1,-0.6 -0.34,-0.9 -0.13,0.4 -0.41,0.5 -1.11,1.7 -1.11,2.2 -5.79,5.2 -7.67,5.1 -3.67,-0.2 2.03,-1.7 7.14,-1 11.02,1.3 24.96,4.3 39,6.5 14.14,1.5 29.95,3.7 44.6,-1.8 l 0.47,-0.2 c 0.78,-0.3 1.18,-1.2 0.89,-2 -0.22,-0.5 -0.77,-0.9 -1.36,-0.9 -13.24,-0.6 -26.05,-5.7 -38.58,-10.7 -12.64,-5 -25.06,-10.7 -38.45,-14.6 -6.69,-1.8 -13.81,-3.6 -21.6,-1.6 -3.85,1 -7.5,3.8 -9.39,7.4 -2.02,3.6 -2.62,7.4 -2.89,11 -0.58,14.2 1.62,28.2 6.69,41.3 5.07,13.1 13.06,25.2 23.78,34.5 10.55,9.4 24.19,15.7 38.4,16.7 14.22,1.3 28.63,-3 40.27,-10.9 11.65,-8 20.62,-19.2 26.7,-31.7 0.36,-0.7 0.05,-1.6 -0.69,-2 -0.54,-0.2 -1.16,-0.1 -1.59,0.2 l -0.49,0.4" /><path
         id="path150"
         style="fill:#1d2238;fill-opacity:1;fill-rule:nonzero;stroke:none"
         d="m 8651.78,12645.9 c -31.36,2.4 -61.2,8.8 -90.5,16.6 -14.81,3.5 -29.03,8.5 -43.55,12.7 -14.31,4.8 -28.46,10 -42.68,15.1 -13.95,5.7 -28.02,11.1 -41.86,17.2 -13.68,6.4 -27.62,12.2 -41.01,19.4 -27.06,13.7 -53.6,28.7 -78.63,47.8 l -0.28,0.2 c -0.54,0.4 -0.65,1.2 -0.24,1.7 0.34,0.4 0.92,0.6 1.42,0.4 l 169.56,-63.2 168.67,-65.5 c 0.64,-0.3 0.95,-1 0.7,-1.6 -0.2,-0.5 -0.71,-0.8 -1.24,-0.8 h -0.36" /><path
         id="path152"
         style="fill:#f0c36a;fill-opacity:1;fill-rule:nonzero;stroke:none"
         d="m 10437.5,9313.4 -1822.29,878.2 -357.13,1111.1 c -125.48,390.4 -443.07,688.8 -840.55,789.6 v 0 c -133.13,33.7 -272.8,-22.1 -345.93,-138.4 -397.37,-631.7 -1237.24,-2731 -1068.76,-3370.3 225.16,-854.5 1973.14,-420.4 2524.86,-260.3 91.14,26.5 141.81,123.5 111.5,213.4 l -217.36,644.8 1737.36,-484.6 278.3,616.5" /><path
         id="path154"
         style="fill:#1d2238;fill-opacity:1;fill-rule:nonzero;stroke:none"
         d="m 8421.15,9179.6 -84.56,25.7 -84.13,26.8 -168.22,53.7 -83.77,27.8 c -14.01,4.7 -27.81,9.1 -41.99,14.1 -14.16,5.2 -28.58,9.9 -42.47,15.8 -56.11,22.6 -109.88,51.4 -160.25,85.3 -101.09,67.7 -186.95,158 -252,261.5 -64.88,103.7 -107.06,221.4 -124.76,342.6 -4.11,30.3 -6.67,61 -7.85,91.4 l -3.21,88.1 c -2,58.8 -4.56,117.6 -6.11,176.4 -2.96,117.6 -7.06,235.1 -8.73,352.7 -2.52,117.7 -3.72,235.3 -4.54,353 l 0.4,176.6 0.26,88.3 1.5,88.3 3.99,0.2 29.79,-705.1 14.89,-352.5 7.45,-176.3 c 2.93,-58.8 3.12,-117.6 11.75,-175.5 16.26,-116 56.12,-228.7 117.35,-328.6 30.54,-49.9 65.86,-97 105.87,-139.8 40.08,-42.8 84.41,-81.5 132.15,-115.5 47.75,-34 99.22,-62.7 152.85,-86.3 26.79,-11.8 54.39,-21.8 81.99,-32 l 82.75,-30.6 330.98,-122.3 -1.38,-3.8" /><path
         id="path156"
         style="fill:#ad6359;fill-opacity:1;fill-rule:nonzero;stroke:none"
         d="m 10398.5,9222.9 84,-37.8 458.2,-16.3 c 37.7,-1.4 70.4,-26.7 81.2,-62.9 v 0 c 15.8,-53.2 -25.5,-114.1 -80.7,-119.2 l -185.3,-10.8 142.2,-53.5 47.5,70.8 234.9,24.3 -98,-250.1 c -29.5,-57.8 -57.1,-70.9 -85,-86.9 L 10776,8554 c -43.5,-24.9 -94.3,-33.4 -143.5,-24.2 v 0 c -138,25.9 -263.5,96.9 -356.9,201.8 l -65.6,73.7 188.5,417.6" /><path
         id="path158"
         style="fill:#1d2238;fill-opacity:1;fill-rule:nonzero;stroke:none"
         d="m 10790.4,8682.1 c 15,5.1 29.5,6.9 43.9,7.5 7.3,0.6 14.3,-0.1 21.5,-0.1 7,-0.4 14.1,-1.2 21.1,-1.9 7,-1.3 14,-2.3 21,-3.8 6.9,-1.8 13.9,-3.1 20.7,-5.6 13.7,-4.4 27.2,-9.9 40.3,-18.8 l -0.2,-2 -84.4,10.4 -84.1,12.3 0.2,2" /><path
         id="path160"
         style="fill:#1d2238;fill-opacity:1;fill-rule:nonzero;stroke:none"
         d="m 10706.1,8595.9 c 10.8,6.1 21.3,8.9 31.7,10.4 10.4,1.7 20.6,1.8 30.8,0.9 10.1,-1 20.2,-3 30.1,-6.6 9.9,-3.5 19.7,-8.1 29.2,-16 l -0.2,-2 c -20.3,1 -40.6,3.1 -60.9,4.7 -20.3,2.2 -40.6,3.9 -60.9,6.6 l 0.2,2" /><path
         id="path162"
         style="fill:#1d2238;fill-opacity:1;fill-rule:nonzero;stroke:none"
         d="m 10897.7,8921.5 c -22.5,1.7 -43.8,6.5 -64.5,12.4 -10.6,2.7 -20.6,6.5 -30.9,9.8 -10.1,3.6 -20,7.6 -30,11.5 -9.8,4.4 -19.7,8.6 -29.4,13.2 -9.6,5 -19.4,9.4 -28.7,15 -18.8,10.5 -37.3,22.1 -54.4,36.9 l 0.8,1.8 119.3,-48.5 118.6,-50.3 -0.8,-1.8" /><path
         id="path164"
         style="fill:#ad6359;fill-opacity:1;fill-rule:nonzero;stroke:none"
         d="m 10182.6,13412 741.1,79.4 v 0 c -47.8,73 -126.1,120.5 -213,128.9 l -207.6,20.1 c -68.3,6.6 -135.6,-19.9 -181.2,-71.2 l -139.3,-157.2" /><path
         id="path166"
         style="fill:#ad6359;fill-opacity:1;fill-rule:nonzero;stroke:none"
         d="m 10817.7,13268.2 v 0 c -40.3,-1.1 -73.8,30.7 -74.9,71 l -4.2,158.8 c -1.1,40.3 30.7,73.9 71,74.9 v 0 c 40.3,1.1 73.8,-30.7 74.9,-71 l 4.2,-158.8 c 1.1,-40.3 -30.7,-73.8 -71,-74.9" /><path
         id="path168"
         style="fill:#ad6359;fill-opacity:1;fill-rule:nonzero;stroke:none"
         d="m 10642.5,13174.9 v 0 c -57.9,-1.6 -106.2,44.1 -107.7,102.1 l -6.1,228.4 c -1.6,58 44.1,106.2 102.1,107.7 v 0 c 57.9,1.6 106.2,-44.1 107.7,-102.1 l 6.1,-228.4 c 1.6,-58 -44.1,-106.2 -102.1,-107.7" /><path
         id="path170"
         style="fill:#1d2238;fill-opacity:1;fill-rule:nonzero;stroke:none"
         d="m 10549.9,13571.5 c 4.5,7.8 10.4,14.9 17.1,21.2 6.7,6.5 14.4,11.9 22.8,16.1 16.8,8.4 36.2,12.5 55.2,10.7 38.5,-2.5 74.5,-28.2 89.6,-63.5 3.8,-8.8 6.5,-18 7.7,-27.4 1.6,-9.4 0.9,-19 1.1,-27.8 l 0.1,-53.8 c -0.2,-36 0,-71.9 -0.7,-107.8 -2.4,35.9 -4.1,71.7 -6.1,107.6 l -2.6,53.8 c -0.3,18.1 -4.1,34.4 -11.8,49.6 -15.3,29.8 -45.3,51.3 -78.7,55.4 -33.3,4.6 -68.8,-7.8 -93.7,-34.1" /><path
         id="path172"
         style="fill:#ad6359;fill-opacity:1;fill-rule:nonzero;stroke:none"
         d="m 10360.3,13181.9 v 0 c -56.5,12.7 -92.1,68.8 -79.4,125.4 l 50.1,223 c 12.7,56.5 68.8,92.1 125.4,79.4 v 0 c 56.5,-12.7 92.1,-68.9 79.4,-125.4 l -50.1,-223 c -12.7,-56.5 -68.8,-92.1 -125.4,-79.4" /><path
         id="path174"
         style="fill:#1d2238;fill-opacity:1;fill-rule:nonzero;stroke:none"
         d="m 10456.4,13609.7 c 23.7,-1.6 47.6,-13.1 64.2,-32 16.8,-18.6 26.9,-43.8 26.9,-69.4 0.1,-12.6 -2.7,-25.9 -5.6,-36.7 -3,-11.4 -5.8,-22.8 -9.2,-34 -6.4,-22.6 -13.5,-45 -22.4,-67.1 1.3,23.8 4.5,47.1 8.3,70.3 1.7,11.6 4.2,23.1 6.2,34.6 2.6,11.9 4.4,21.9 4.2,32.7 0.2,10.7 -1.7,21.4 -5.1,31.6 -3.2,10.3 -8.4,19.9 -14.5,29 -12.6,18 -31.1,31.8 -53,41" /><path
         id="path176"
         style="fill:#1d2238;fill-opacity:1;fill-rule:nonzero;stroke:none"
         d="m 10884,13490 c -1.3,11.4 -4.4,22.7 -9.2,32.7 -4.6,10.2 -11.3,19.1 -19.7,25.5 -1.9,1.8 -4.2,3.2 -6.6,4.3 -2.3,1.2 -4.4,2.7 -7,3.3 -2.5,0.9 -4.9,1.8 -7.2,2.9 -2.6,0.6 -5,1.4 -7.5,2.3 -2.5,1.1 -5.1,1.8 -7.7,2.3 -2.7,0.8 -5.3,1.4 -8,2.3 -5.5,1.2 -11.2,2.3 -17.1,4.4 l -0.1,0.1 c -0.5,0.1 -0.7,0.6 -0.5,1 0.1,0.2 0.2,0.4 0.4,0.5 5.7,2.2 11.7,4 17.8,4.9 6.2,0.2 12.5,1 18.8,-0.5 12.9,-1.3 24.1,-9.9 33,-18.6 9,-9.1 15.1,-20.3 18.6,-32 3.3,-11.7 4.7,-23.6 3.6,-35.5 -0.1,-0.4 -0.4,-0.7 -0.9,-0.7 -0.3,0.1 -0.6,0.4 -0.7,0.7 v 0.1" /><path
         id="path178"
         style="fill:#1d2238;fill-opacity:1;fill-rule:nonzero;stroke:none"
         d="m 8550.8,10385.5 c -49.45,114.7 -91.01,232 -131.25,349.3 -20.8,58.4 -39.31,117.4 -59.73,175.8 -19.53,58.6 -38.97,117.2 -59.53,175.3 -19.36,58.4 -40.42,116.9 -61.54,173.9 -20.61,57.1 -46.28,112.4 -72.1,167.8 -53.04,110.3 -115.04,217.4 -174.67,327.1 l 3.28,2.2 c 71.43,-101.4 140.42,-204.9 199.13,-314.5 29.22,-54.8 56.24,-110.9 79.27,-168.7 22.81,-57.8 44.08,-116.1 64.42,-174.7 80.27,-235.1 145.38,-474.7 216.55,-712.3 l -3.83,-1.2" /><path
         id="path180"
         style="fill:#4a4e60;fill-opacity:1;fill-rule:nonzero;stroke:none"
         d="m 12240.2,7554 h -378.7 v 7352.2 h 378.7 V 7554" /><g
         transform="scale(1.16877)"
         id="g182"><path
           id="path184"
           style="fill:#ffffff;fill-opacity:1;fill-rule:nonzero;stroke:none"
           d="m 12479.1,5303.42 -501.8,2733.3 3821.1,701.33 501.6,-2733.29 -3820.9,-701.34" /></g><g
         transform="scale(1.16932)"
         id="g186"><path
           id="path188"
           style="fill:#d2d6e1;fill-opacity:1;fill-rule:nonzero;stroke:none"
           d="m 11979.4,8027.66 499.1,-2719.1 3806.4,698.61 -499.2,2719.21 z m 488.6,-2734.32 -503.9,2744.84 3832.1,703.38 503.8,-2744.82 -3832,-703.4" /></g><g
         transform="scale(1.15907)"
         id="g190"><path
           id="path192"
           style="fill:#4a4e60;fill-opacity:1;fill-rule:nonzero;stroke:none"
           d="m 16300,6149.26 -3622.2,-664.94 -463.6,2525.48 3622.2,664.9 463.6,-2525.44" /></g><g
         transform="scale(1.15907)"
         id="g194"><path
           id="path196"
           style="fill:#ffffff;fill-opacity:1;fill-rule:nonzero;stroke:none"
           d="m 12502.2,6440.52 578.7,814.88 c 140.7,198.09 413.3,248.56 615.5,113.89 l 957.4,-637.76 c 116.8,-77.73 273.6,-52.8 360.5,57.29 l 152.2,192.74 c 139.9,177.21 389.6,223.11 583.4,107.24 l 424.2,-253.74 125.9,-685.8 -3622.2,-664.94 -175.6,956.2" /></g><g
         transform="scale(1.06853)"
         id="g198"><path
           id="path200"
           style="fill:#ffffff;fill-opacity:1;fill-rule:nonzero;stroke:none"
           d="m 16267.7,8480.41 c 32.3,-175.85 -84,-344.5 -259.9,-376.78 -175.8,-32.29 -344.5,84.13 -376.8,259.88 -32.2,175.86 84.2,344.5 259.9,376.78 175.9,32.29 344.5,-84.04 376.8,-259.88" /></g><g
         id="g202"><g
           clip-path="url(#clipPath208)"
           id="g204"><g
             transform="scale(1.18387)"
             id="g210"><path
               id="path212"
               style="fill:#ffffff;fill-opacity:1;fill-rule:nonzero;stroke:none"
               d="m 11935.2,8126.43 505.1,3728.77 5212.5,-706.1 -505.1,-3728.74 -5212.5,706.07" /></g><g
             transform="scale(1.18387)"
             id="g214"><path
               id="path216"
               style="fill:#d2d6e1;fill-opacity:1;fill-rule:nonzero;stroke:none"
               d="m 11945.1,8133.95 5195.1,-703.63 502.7,3711.28 -5195.1,703.6 z m 5210.2,-723.48 -8.7,1.18 -5221.3,707.18 1.1,8.79 506.3,3737.48 8.8,-1.2 5221.2,-707.2 -1.1,-8.7 -506.3,-3737.53" /></g><g
             transform="scale(1.18387)"
             id="g218"><path
               id="path220"
               style="fill:#d2d6e1;fill-opacity:1;fill-rule:nonzero;stroke:none"
               d="m 17012.8,7597.57 -4900.4,663.76 462.8,3416.67 4900.4,-663.8 -462.8,-3416.63" /></g><g
             transform="scale(1.18387)"
             id="g222"><path
               id="path224"
               style="fill:#ffffff;fill-opacity:1;fill-rule:nonzero;stroke:none"
               d="m 12287.6,9554.92 1078.8,798.38 c 262.2,194.1 631.2,144.6 833.1,-111.7 l 955.6,-1213.55 c 116.6,-147.93 327.1,-181.64 483.9,-77.45 l 274.7,182.45 c 252.6,167.75 590.4,122.08 789.3,-106.72 l 435.5,-500.87 -125.7,-927.89 -4900.4,663.76 175.2,1293.59" /></g><g
             transform="scale(1.16763)"
             id="g226"><path
               id="path228"
               style="fill:#ffffff;fill-opacity:1;fill-rule:nonzero;stroke:none"
               d="m 16269.9,10414.2 c -30.1,-222.3 -234.7,-378.2 -457,-348.1 -222.4,30.2 -378.2,234.8 -348.1,457.1 30.1,222.4 234.7,378.2 457.1,348.1 222.3,-30.1 378.1,-234.8 348,-457.1" /></g></g></g><g
         transform="scale(1.18382)"
         id="g230"><path
           id="path232"
           style="fill:#e4e6ed;fill-opacity:1;fill-rule:nonzero;stroke:none"
           d="M 16300,2421.9 H 10339.6 V 6381.03 H 16300 V 2421.9" /></g><g
         transform="scale(1.15807)"
         id="g234"><path
           id="path236"
           style="fill:#ffffff;fill-opacity:1;fill-rule:nonzero;stroke:none"
           d="m 16092.1,2790.5 h -4949.7 c -114.9,0 -207.9,93.08 -207.9,207.93 v 2967.25 c 0,114.85 93,207.93 207.9,207.93 h 4949.7 c 114.8,0 207.9,-93.08 207.9,-207.93 V 2998.43 c 0,-114.85 -93.1,-207.93 -207.9,-207.93" /></g><path
         id="path238"
         style="fill:#1d2238;fill-opacity:1;fill-rule:nonzero;stroke:none"
         d="m 14480.7,4556.6 h -759.3 v 211.7 h 759.3 v -211.7" /><path
         id="path240"
         style="fill:#f0c36a;fill-opacity:1;fill-rule:nonzero;stroke:none"
         d="m 13769.6,4685.2 -70.1,150.6 c -10.4,22.2 -32.6,36.4 -57.1,36.4 h -473.5 c -34.8,0 -63,-28.2 -63,-63 V 3667.3 c 0,-34.8 28.2,-63 63,-63 h 1384.3 c 34.8,0 63,28.2 63,63 v 918.5 c 0,34.8 -28.2,63 -63,63 h -726.5 c -24.5,0 -46.8,14.2 -57.1,36.4" /><g
         transform="scale(1.00549)"
         id="g242"><path
           id="path244"
           style="fill:#1d2238;fill-opacity:1;fill-rule:nonzero;stroke:none"
           d="m 16300,4531.72 h -755.3 v 210.54 h 755.3 v -210.54" /></g><g
         transform="scale(1.0138)"
         id="g246"><path
           id="path248"
           style="fill:#f0c36a;fill-opacity:1;fill-rule:nonzero;stroke:none"
           d="m 15464.9,4621.43 -69.1,148.56 c -10.2,21.89 -32.2,35.9 -56.3,35.9 h -467.1 c -34.3,0 -62.1,-27.82 -62.1,-62.14 V 3617.39 c 0,-34.33 27.8,-62.14 62.1,-62.14 h 1365.5 c 34.3,0 62.1,27.81 62.1,62.14 v 906 c 0,34.33 -27.8,62.14 -62.1,62.14 h -716.7 c -24.1,0 -46.1,14.01 -56.3,35.9" /></g><g
         transform="scale(1.12259)"
         id="g250"><path
           id="path252"
           style="fill:#1d2238;fill-opacity:1;fill-rule:nonzero;stroke:none"
           d="m 16300,4059.01 h -676.5 v 188.58 h 676.5 v -188.58" /></g><g
         transform="scale(1.1309)"
         id="g254"><path
           id="path256"
           style="fill:#f0c36a;fill-opacity:1;fill-rule:nonzero;stroke:none"
           d="m 15551.4,4142.91 -62,133.17 c -9.1,19.63 -28.8,32.19 -50.5,32.19 h -418.7 c -30.8,0 -55.7,-24.94 -55.7,-55.71 V 3242.83 c 0,-30.77 24.9,-55.71 55.7,-55.71 h 1224.1 c 30.8,0 55.7,24.94 55.7,55.71 v 812.19 c 0,30.77 -24.9,55.7 -55.7,55.7 h -642.4 c -21.7,0 -41.3,12.56 -50.5,32.19" /></g><path
         id="path258"
         style="fill:#1d2238;fill-opacity:1;fill-rule:nonzero;stroke:none"
         d="m 14480.7,6407.1 h -759.3 v 211.7 h 759.3 v -211.7" /><path
         id="path260"
         style="fill:#f0c36a;fill-opacity:1;fill-rule:nonzero;stroke:none"
         d="m 13769.6,6535.7 -70.1,150.6 c -10.4,22.3 -32.6,36.5 -57.1,36.5 h -473.5 c -34.8,0 -63,-28.2 -63,-63 v -1142 c 0,-34.8 28.2,-63 63,-63 h 1384.3 c 34.8,0 63,28.2 63,63 v 918.5 c 0,34.8 -28.2,63 -63,63 h -726.5 c -24.5,0 -46.8,14.2 -57.1,36.4" /><g
         transform="scale(1.00549)"
         id="g262"><path
           id="path264"
           style="fill:#1d2238;fill-opacity:1;fill-rule:nonzero;stroke:none"
           d="m 16300,6372.11 h -755.3 v 210.55 h 755.3 v -210.55" /></g><g
         transform="scale(1.0138)"
         id="g266"><path
           id="path268"
           style="fill:#f0c36a;fill-opacity:1;fill-rule:nonzero;stroke:none"
           d="m 15464.9,6446.75 -69.1,148.55 c -10.2,22 -32.2,36 -56.3,36 h -467.1 c -34.3,0 -62.1,-27.81 -62.1,-62.14 V 5442.7 c 0,-34.32 27.8,-62.14 62.1,-62.14 h 1365.5 c 34.3,0 62.1,27.82 62.1,62.14 v 906 c 0,34.33 -27.8,62.15 -62.1,62.15 h -716.7 c -24.1,0 -46.1,14 -56.3,35.9" /></g><g
         transform="scale(1.12259)"
         id="g270"><path
           id="path272"
           style="fill:#1d2238;fill-opacity:1;fill-rule:nonzero;stroke:none"
           d="m 16300,5707.43 h -676.5 v 188.58 h 676.5 v -188.58" /></g><g
         transform="scale(1.1309)"
         id="g274"><path
           id="path276"
           style="fill:#f0c36a;fill-opacity:1;fill-rule:nonzero;stroke:none"
           d="m 15551.4,5779.22 -62,133.17 c -9.1,19.72 -28.8,32.28 -50.5,32.28 h -418.7 c -30.8,0 -55.7,-24.94 -55.7,-55.71 V 4879.14 c 0,-30.77 24.9,-55.71 55.7,-55.71 h 1224.1 c 30.8,0 55.7,24.94 55.7,55.71 v 812.19 c 0,30.77 -24.9,55.71 -55.7,55.71 h -642.4 c -21.7,0 -41.3,12.55 -50.5,32.18" /></g><g
         transform="scale(1.05426)"
         id="g278"><path
           id="path280"
           style="fill:#d2d6e1;fill-opacity:1;fill-rule:nonzero;stroke:none"
           d="m 14081.6,15638.1 h -4060.1 c -182.78,0 -330.94,148.2 -330.94,331 v 0 c 0,182.7 148.16,330.9 330.94,330.9 h 4060.1 c 182.8,0 330.9,-148.2 330.9,-330.9 v 0 c 0,-182.8 -148.1,-331 -330.9,-331" /></g><g
         transform="scale(1.05426)"
         id="g282"><path
           id="path284"
           style="fill:#edb248;fill-opacity:1;fill-rule:nonzero;stroke:none"
           d="m 9003.73,16300 138.28,-661.9 h 344.23 L 9348,16300 h -344.27" /></g><g
         transform="scale(1.05395)"
         id="g286"><path
           id="path288"
           style="fill:#edb248;fill-opacity:1;fill-rule:nonzero;stroke:none"
           d="m 6799.83,15973.8 v 0 c 0,-182.9 148.21,-331.1 331.03,-331.1 h 81.1 l -137.32,657.3 c -156.05,-26.7 -274.81,-162.6 -274.81,-326.2" /></g><g
         transform="scale(1.05426)"
         id="g290"><path
           id="path292"
           style="fill:#edb248;fill-opacity:1;fill-rule:nonzero;stroke:none"
           d="m 9572.85,16300 138.29,-661.9 h 344.26 l -138.33,661.9 h -344.22" /></g><g
         transform="scale(1.05426)"
         id="g294"><path
           id="path296"
           style="fill:#edb248;fill-opacity:1;fill-rule:nonzero;stroke:none"
           d="m 8434.62,16300 138.29,-661.9 h 344.26 l -138.28,661.9 h -344.27" /></g><g
         transform="scale(1.05426)"
         id="g298"><path
           id="path300"
           style="fill:#edb248;fill-opacity:1;fill-rule:nonzero;stroke:none"
           d="m 7296.4,16300 138.29,-661.9 h 344.27 l -138.3,661.9 H 7296.4" /></g><g
         transform="scale(1.05426)"
         id="g302"><path
           id="path304"
           style="fill:#edb248;fill-opacity:1;fill-rule:nonzero;stroke:none"
           d="m 11188.9,16300 h -477.8 l 138.3,-661.9 h 339.5 c 182.7,0 330.9,148.2 330.9,331 v 0 c 0,182.7 -148.2,330.9 -330.9,330.9" /></g><g
         transform="scale(1.05426)"
         id="g306"><path
           id="path308"
           style="fill:#edb248;fill-opacity:1;fill-rule:nonzero;stroke:none"
           d="m 7865.51,16300 138.29,-661.9 h 344.27 l -138.3,661.9 h -344.26" /></g><g
         transform="scale(1.05426)"
         id="g310"><path
           id="path312"
           style="fill:#edb248;fill-opacity:1;fill-rule:nonzero;stroke:none"
           d="m 10142,16300 138.3,-661.9 h 344.2 l -138.3,661.9 H 10142" /></g><g
         transform="scale(1.05426)"
         id="g314"><path
           id="path316"
           style="fill:#f0c36a;fill-opacity:1;fill-rule:nonzero;stroke:none"
           d="m 7128.77,16300 c -19.17,0 -37.94,-1.7 -56.21,-4.8 l 137.29,-657.1 h 224.84 L 7296.4,16300 h -167.63" /></g><g
         transform="scale(1.05426)"
         id="g318"><path
           id="path320"
           style="fill:#f0c36a;fill-opacity:1;fill-rule:nonzero;stroke:none"
           d="m 7640.66,16300 138.3,-661.9 h 224.84 l -138.29,661.9 h -224.85" /></g><g
         transform="scale(1.05426)"
         id="g322"><path
           id="path324"
           style="fill:#f0c36a;fill-opacity:1;fill-rule:nonzero;stroke:none"
           d="m 8209.77,16300 138.3,-661.9 h 224.84 l -138.29,661.9 h -224.85" /></g><g
         transform="scale(1.05426)"
         id="g326"><path
           id="path328"
           style="fill:#f0c36a;fill-opacity:1;fill-rule:nonzero;stroke:none"
           d="m 8778.89,16300 138.28,-661.9 h 224.84 l -138.28,661.9 h -224.84" /></g><g
         transform="scale(1.05426)"
         id="g330"><path
           id="path332"
           style="fill:#f0c36a;fill-opacity:1;fill-rule:nonzero;stroke:none"
           d="m 9348,16300 138.24,-661.9 h 224.9 L 9572.85,16300 H 9348" /></g><g
         transform="scale(1.05426)"
         id="g334"><path
           id="path336"
           style="fill:#f0c36a;fill-opacity:1;fill-rule:nonzero;stroke:none"
           d="m 9917.07,16300 138.33,-661.9 h 224.9 L 10142,16300 h -224.93" /></g><g
         transform="scale(1.05426)"
         id="g338"><path
           id="path340"
           style="fill:#f0c36a;fill-opacity:1;fill-rule:nonzero;stroke:none"
           d="m 10486.2,16300 138.3,-661.9 h 224.9 l -138.3,661.9 h -224.9" /></g></g></g></svg>