<?xml version="1.0" encoding="UTF-8" standalone="no"?>
<svg
   xmlns:dc="http://purl.org/dc/elements/1.1/"
   xmlns:cc="http://creativecommons.org/ns#"
   xmlns:rdf="http://www.w3.org/1999/02/22-rdf-syntax-ns#"
   xmlns:svg="http://www.w3.org/2000/svg"
   xmlns="http://www.w3.org/2000/svg"
   viewBox="0 0 1600 1600"
   height="1600"
   width="1600"
   xml:space="preserve"
   id="svg2"
   version="1.1"><metadata
     id="metadata8"><rdf:RDF><cc:Work
         rdf:about=""><dc:format>image/svg+xml</dc:format><dc:type
           rdf:resource="http://purl.org/dc/dcmitype/StillImage" /></cc:Work></rdf:RDF></metadata><defs
     id="defs6" /><g
     transform="matrix(1.3333333,0,0,-1.3333333,0,1600)"
     id="g10"><g
       transform="scale(0.1)"
       id="g12"><path
         id="path14"
         style="fill:#11100e;fill-opacity:1;fill-rule:nonzero;stroke:none"
         d="m 5995,7988.07 c -3.56,0 -7.09,-0.12 -10.65,-0.13 V 5316.14 H 8731.88 C 8726.12,6792.76 7503.06,7988.07 5995,7988.07" /><path
         id="path16"
         style="fill:#11100e;fill-opacity:1;fill-rule:nonzero;stroke:none"
         d="m 8927.03,7969.89 536.75,526.02 c 111.83,109.6 111.83,288.94 0,398.54 l -286.16,280.45 c -111.84,109.59 -294.83,109.59 -406.66,0 L 8173.01,8588.88 C 7672.12,8907.1 7094.7,9118.86 6474.25,9191.52 v 591.75 h 149.09 c 140.59,0 255.6,112.73 255.6,250.53 v 375.7 c 0,137.8 -115.01,250.5 -255.6,250.5 H 5345.36 c -140.58,0 -255.6,-112.7 -255.6,-250.5 v -375.7 c 0,-137.8 115.02,-250.53 255.6,-250.53 h 149.09 V 9189.13 C 4898.08,9116.12 4342,8914.33 3856,8613.28 l -573.06,561.62 c -111.83,109.59 -294.82,109.59 -406.66,0 l -286.16,-280.45 c -111.82,-109.6 -111.82,-288.94 0,-398.54 l 503.75,-493.68 C 2642.63,7539.72 2305.06,6969.86 2125.57,6336.21 l 344.43,315.9 448.89,-644.99 C 3251.86,7369.16 4504.6,8384.69 5995,8384.69 7739.09,8384.69 9158.01,6994.1 9158.01,5284.83 9158.01,3575.58 7739.09,2184.98 5995,2184.98 4408.56,2184.98 3091.48,3335.62 2866.3,4830 H 3640 L 2380,6230 1300,4830 h 706.7 C 2237.48,2873.77 3938.06,1350 5995,1350 c 2213.89,0 4015,1765.16 4015,3934.83 0,1037.02 -411.65,1981.43 -1082.97,2685.06" /></g></g></svg>