<?xml version="1.0" encoding="UTF-8" standalone="no"?>
<svg
   xmlns:dc="http://purl.org/dc/elements/1.1/"
   xmlns:cc="http://creativecommons.org/ns#"
   xmlns:rdf="http://www.w3.org/1999/02/22-rdf-syntax-ns#"
   xmlns:svg="http://www.w3.org/2000/svg"
   xmlns="http://www.w3.org/2000/svg"
   viewBox="0 0 4000 2666.6667"
   height="2666.6667"
   width="4000"
   xml:space="preserve"
   id="svg2"
   version="1.1"><metadata
     id="metadata8"><rdf:RDF><cc:Work
         rdf:about=""><dc:format>image/svg+xml</dc:format><dc:type
           rdf:resource="http://purl.org/dc/dcmitype/StillImage" /></cc:Work></rdf:RDF></metadata><defs
     id="defs6"><clipPath
       id="clipPath252"
       clipPathUnits="userSpaceOnUse"><path
         id="path250"
         d="m 26701.7,13304.6 h -6462.6 v 1616.9 h 6462.6 z" /></clipPath><clipPath
       id="clipPath370"
       clipPathUnits="userSpaceOnUse"><path
         id="path368"
         d="m 5274.34,12790.8 v 0 c -426.53,19.4 -790.74,-294.6 -841.24,-711.6 l -6.53,1.3 -240.55,-1161.5 c -39.95,-192.9 39.56,-390.9 201.79,-502.7 v 0 c 158.67,-109.2 350.17,-160.4 542.18,-144.8 v 0 c 87.08,7 154.08,79.9 153.85,167.2 l -1.2,454.9 c 34.36,-6 69.41,-10.2 105.19,-11.8 v 0 c 447.3,-20.3 826.34,325.9 846.61,773.2 l 13.11,289.2 c 20.27,447.3 -325.91,826.4 -773.21,846.6 z" /></clipPath><clipPath
       id="clipPath430"
       clipPathUnits="userSpaceOnUse"><path
         id="path428"
         d="M 9682.77,11181.8 H 7977.8 v 1965.9 h 1704.97 z" /></clipPath></defs><g
     transform="matrix(1.3333333,0,0,-1.3333333,0,2666.6667)"
     id="g10"><g
       transform="scale(0.1)"
       id="g12"><g
         transform="scale(1.84018)"
         id="g14"><path
           id="path16"
           style="fill:#ffffff;fill-opacity:1;fill-rule:nonzero;stroke:none"
           d="M 16300,2.66405 H 2.71712 V 10865.8 H 16300 V 2.66405" /></g><g
         transform="scale(1.84049)"
         id="g18"><path
           id="path20"
           style="fill:#000000;fill-opacity:1;fill-rule:nonzero;stroke:none"
           d="M 5.43121,5.38027 H 16294.6 V 10861.3 H 5.43121 Z M 16300,0 H 0 V 10866.7 H 16300 V 0" /></g><g
         transform="scale(1.15433)"
         id="g22"><path
           id="path24"
           style="fill:#1d2238;fill-opacity:1;fill-rule:nonzero;stroke:none"
           d="m 15707.9,2045.52 h -5034.6 c -327,0 -592.1,265.09 -592.1,592.12 V 12765.6 c 0,327 265.1,592.1 592.1,592.1 h 5034.6 c 327,0 592.1,-265.1 592.1,-592.1 V 2637.64 c 0,-327.03 -265.1,-592.12 -592.1,-592.12" /></g><g
         transform="scale(1.13298)"
         id="g26"><path
           id="path28"
           style="fill:#ffffff;fill-opacity:1;fill-rule:nonzero;stroke:none"
           d="M 16300,2965.45 H 10578.2 V 12728 H 16300 V 2965.45" /></g><path
         id="path30"
         style="fill:#ffffff;fill-opacity:1;fill-rule:nonzero;stroke:none"
         d="m 15802.9,14879.2 h -1153.3 c -51.4,0 -93,41.6 -93,93 v 0 c 0,51.3 41.6,93 93,93 h 1153.3 c 51.4,0 93,-41.7 93,-93 v 0 c 0,-51.4 -41.6,-93 -93,-93" /><g
         transform="scale(1.02403)"
         id="g32"><path
           id="path34"
           style="fill:#f1f2f5;fill-opacity:1;fill-rule:nonzero;stroke:none"
           d="m 16043.8,12227.7 h -3580.9 c -141.4,0 -256,114.7 -256,256.1 v 657.3 c 0,141.4 114.6,256.1 256,256.1 h 3580.9 c 141.5,0 256.2,-114.7 256.2,-256.1 v -657.3 c 0,-141.4 -114.7,-256.1 -256.2,-256.1" /></g><g
         transform="scale(1.11016)"
         id="g36"><path
           id="path38"
           style="fill:#f1f2f5;fill-opacity:1;fill-rule:nonzero;stroke:none"
           d="m 16142.8,9822.86 h -3461.3 c -86.7,0 -157.1,70.37 -157.1,157.16 v 764.38 c 0,86.8 70.4,157.2 157.1,157.2 h 3461.3 c 86.8,0 157.2,-70.4 157.2,-157.2 v -764.38 c 0,-86.79 -70.4,-157.16 -157.2,-157.16" /></g><g
         transform="scale(1.11016)"
         id="g40"><path
           id="path42"
           style="fill:#f1f2f5;fill-opacity:1;fill-rule:nonzero;stroke:none"
           d="m 16142.8,7058.54 h -3461.3 c -86.7,0 -157.1,70.34 -157.1,157.09 v 764.48 c 0,86.75 70.4,157.19 157.1,157.19 h 3461.3 c 86.8,0 157.2,-70.44 157.2,-157.19 v -764.48 c 0,-86.75 -70.4,-157.09 -157.2,-157.09" /></g><g
         transform="scale(1.01021)"
         id="g44"><path
           id="path46"
           style="fill:#f0c36a;fill-opacity:1;fill-rule:nonzero;stroke:none"
           d="m 16131.9,6214.03 h -3590.1 c -92.9,0 -168,75.13 -168,167.98 v 849.42 c 0,92.76 75.1,167.99 168,167.99 h 3590.1 c 92.9,0 168.1,-75.23 168.1,-167.99 v -849.42 c 0,-92.85 -75.2,-167.98 -168.1,-167.98" /></g><path
         id="path48"
         style="fill:#f1f2f5;fill-opacity:1;fill-rule:nonzero;stroke:none"
         d="M 15021.4,9394.7 H 12705 c -113.1,0 -204.8,91.7 -204.8,204.9 v 787.8 c 0,113.2 91.7,204.9 204.8,204.9 h 2316.4 c 113.1,0 204.9,-91.7 204.9,-204.9 v -787.8 c 0,-113.2 -91.8,-204.9 -204.9,-204.9" /><g
         transform="scale(1.13298)"
         id="g50"><path
           id="path52"
           style="fill:#f1f2f5;fill-opacity:1;fill-rule:nonzero;stroke:none"
           d="m 16300,2965.45 h -5721.8 v 2077.7 H 16300 v -2077.7" /></g><g
         transform="scale(1.00669)"
         id="g54"><path
           id="path56"
           style="fill:#9ea9bd;fill-opacity:1;fill-rule:nonzero;stroke:none"
           d="m 12765.3,13368.2 441.8,4.4 441.8,2.6 883.7,2.1 883.7,-2.1 441.9,-2.5 441.8,-4.5 -441.8,-4.5 -441.9,-2.5 -883.7,-2.1 -883.7,2.1 -441.8,2.6 -441.8,4.4" /></g><g
         transform="scale(1.00461)"
         id="g58"><path
           id="path60"
           style="fill:#9ea9bd;fill-opacity:1;fill-rule:nonzero;stroke:none"
           d="m 12757.9,13060.2 442.8,4.4 442.7,2.6 885.6,2.1 885.5,-2.1 442.7,-2.6 442.8,-4.4 -442.8,-4.5 -442.7,-2.6 -885.5,-2.1 -885.6,2.2 -442.7,2.5 -442.8,4.5" /></g><g
         transform="scale(1.00253)"
         id="g62"><path
           id="path64"
           style="fill:#9ea9bd;fill-opacity:1;fill-rule:nonzero;stroke:none"
           d="m 13246.2,12750.8 381.8,4.4 381.7,2.6 763.4,2.1 763.4,-2.1 381.8,-2.5 381.7,-4.5 -381.7,-4.5 -381.8,-2.6 -763.4,-2.1 -763.4,2.2 -381.7,2.5 -381.8,4.5" /></g><g
         transform="scale(1.09026)"
         id="g66"><path
           id="path68"
           style="fill:#9ea9bd;fill-opacity:1;fill-rule:nonzero;stroke:none"
           d="m 13036.2,10860.8 408,4.1 407.9,2.3 816,2 815.9,-1.9 408,-2.4 408,-4.1 -408,-4.1 -408,-2.4 -815.9,-1.9 -816,1.9 -407.9,2.4 -408,4.1" /></g><g
         transform="scale(1.08817)"
         id="g70"><path
           id="path72"
           style="fill:#9ea9bd;fill-opacity:1;fill-rule:nonzero;stroke:none"
           d="m 13029.9,10571.6 408.8,4.1 408.7,2.4 817.6,1.9 817.5,-1.9 408.7,-2.4 408.8,-4.1 -408.8,-4.1 -408.7,-2.4 -817.5,-1.9 -817.6,2 -408.7,2.3 -408.8,4.1" /></g><g
         transform="scale(1.05106)"
         id="g74"><path
           id="path76"
           style="fill:#9ea9bd;fill-opacity:1;fill-rule:nonzero;stroke:none"
           d="m 13457.7,10623.9 355.3,4.3 355.2,2.4 710.7,2.1 710.6,-2 355.2,-2.5 355.3,-4.3 -355.3,-4.3 -355.2,-2.4 -710.6,-2 -710.7,2 -355.2,2.5 -355.3,4.2" /></g><path
         id="path78"
         style="fill:#9ea9bd;fill-opacity:1;fill-rule:nonzero;stroke:none"
         d="m 12736.9,10335.6 291.3,3.6 291.4,2.1 582.6,1.8 582.7,-1.8 291.4,-2 291.3,-3.7 -291.3,-3.6 -291.4,-2.1 -582.7,-1.7 -582.6,1.7 -291.4,2.1 -291.3,3.6" /><path
         id="path80"
         style="fill:#9ea9bd;fill-opacity:1;fill-rule:nonzero;stroke:none"
         d="m 12714.6,9998.3 291.4,3.6 291.3,2.1 582.7,1.7 582.7,-1.7 291.3,-2.1 291.4,-3.6 -291.4,-3.7 -291.3,-2 -582.7,-1.7 -582.7,1.7 -291.3,2.1 -291.4,3.6" /><path
         id="path82"
         style="fill:#9ea9bd;fill-opacity:1;fill-rule:nonzero;stroke:none"
         d="m 13193.1,9661 c 76.2,1.6 152.5,2.4 228.7,3.6 l 228.8,2.1 457.5,1.7 457.5,-1.7 228.8,-2.1 c 76.2,-1.2 152.5,-2 228.8,-3.6 -76.3,-1.7 -152.6,-2.4 -228.8,-3.7 l -228.8,-2.1 -457.5,-1.7 -457.5,1.8 -228.8,2 c -76.2,1.3 -152.5,2 -228.7,3.7" /><g
         transform="scale(1.09759)"
         id="g84"><path
           id="path86"
           style="fill:#9ea9bd;fill-opacity:1;fill-rule:nonzero;stroke:none"
           d="m 12951.1,7992.24 418.7,4.1 418.5,2.38 837.2,2 837.3,-1.92 418.6,-2.36 418.6,-4.2 -418.6,-4.18 -418.6,-2.37 -837.3,-1.92 -837.2,1.92 -418.5,2.45 -418.7,4.1" /></g><g
         transform="scale(1.09544)"
         id="g88"><path
           id="path90"
           style="fill:#9ea9bd;fill-opacity:1;fill-rule:nonzero;stroke:none"
           d="m 12944.5,7700.04 419.5,4.11 419.4,2.37 838.9,2.01 838.9,-2.01 419.4,-2.37 419.4,-4.11 -419.4,-4.2 -419.4,-2.37 -838.9,-2.01 -838.9,2.01 -419.4,2.37 -419.5,4.2" /></g><g
         transform="scale(1.0476)"
         id="g92"><path
           id="path94"
           style="fill:#9ea9bd;fill-opacity:1;fill-rule:nonzero;stroke:none"
           d="m 13502.2,7729.56 c 116.5,2.01 233.1,2.87 349.6,4.39 l 349.8,2.48 699.5,2.1 699.4,-2.1 349.7,-2.48 c 116.6,-1.43 233.2,-2.29 349.8,-4.39 -116.6,-2 -233.2,-2.86 -349.8,-4.29 l -349.7,-2.48 -699.4,-2.11 -699.5,2.11 -349.8,2.48 c -116.5,1.43 -233.1,2.29 -349.6,4.29" /></g><path
         id="path96"
         style="fill:#ffffff;fill-opacity:1;fill-rule:nonzero;stroke:none"
         d="m 12738.1,7208.8 111.2,2.7 111.2,2.1 222.4,4.1 444.8,5.1 c 296.5,3.4 593,3.9 889.6,4.3 l 444.8,-0.9 c 148.2,-1.1 296.5,-1.2 444.8,-3.3 l 444.8,-5.1 222.4,-4.2 111.2,-2.1 111.2,-2.7 -111.2,-2.8 -111.2,-2.1 -222.4,-4.1 -444.8,-5.2 c -148.3,-2 -296.6,-2.1 -444.8,-3.2 l -444.8,-1 c -296.6,0.5 -593.1,0.9 -889.6,4.3 l -444.8,5.1 -222.4,4.1 -111.2,2.1 -111.2,2.8" /><path
         id="path98"
         style="fill:#ffffff;fill-opacity:1;fill-rule:nonzero;stroke:none"
         d="m 12704.1,6871.4 111.2,2.8 111.2,2.1 222.4,4.1 444.8,5.1 c 296.5,3.4 593.1,3.8 889.6,4.3 l 444.8,-1 c 148.3,-1.1 296.5,-1.1 444.8,-3.2 l 444.8,-5.2 222.4,-4.1 111.2,-2.1 111.2,-2.8 -111.2,-2.7 -111.2,-2.1 -222.4,-4.2 -444.8,-5.1 c -148.3,-2.1 -296.5,-2.2 -444.8,-3.3 l -444.8,-0.9 c -296.5,0.4 -593.1,0.9 -889.6,4.3 l -444.8,5.1 -222.4,4.1 -111.2,2.1 -111.2,2.7" /><path
         id="path100"
         style="fill:#ffffff;fill-opacity:1;fill-rule:nonzero;stroke:none"
         d="m 13473.5,6534.1 86.1,2.8 86.1,2.1 172.2,4.1 c 114.8,2.1 229.6,4.1 344.4,5.3 114.8,1.7 229.6,2.1 344.4,3.1 l 344.3,1 344.4,-1 c 114.8,-1 229.6,-1.3 344.4,-3.1 114.8,-1.2 229.6,-3.1 344.4,-5.3 l 172.2,-4.1 86.1,-2.1 86.1,-2.8 -86.1,-2.8 -86.1,-2.1 -172.2,-4.1 c -114.8,-2.1 -229.6,-4.1 -344.4,-5.3 -114.8,-1.7 -229.6,-2.1 -344.4,-3.1 l -344.4,-1 -344.3,1.1 c -114.8,1 -229.6,1.3 -344.4,3 -114.8,1.3 -229.6,3.2 -344.4,5.4 l -172.2,4.1 -86.1,2 -86.1,2.8" /><path
         id="path102"
         style="fill:#e4e6ed;fill-opacity:1;fill-rule:nonzero;stroke:none"
         d="M 12703.4,4920.8 H 12315 c -51.4,0 -93,41.7 -93,93 v 323.3 c 0,51.4 41.6,93 93,93 h 388.4 c 51.3,0 92.9,-41.6 92.9,-93 v -323.3 c 0,-51.3 -41.6,-93 -92.9,-93" /><path
         id="path104"
         style="fill:#e4e6ed;fill-opacity:1;fill-rule:nonzero;stroke:none"
         d="m 13473.9,4920.8 h -388.4 c -51.4,0 -93,41.7 -93,93 v 323.3 c 0,51.4 41.6,93 93,93 h 388.4 c 51.3,0 93,-41.6 93,-93 v -323.3 c 0,-51.3 -41.7,-93 -93,-93" /><path
         id="path106"
         style="fill:#e4e6ed;fill-opacity:1;fill-rule:nonzero;stroke:none"
         d="M 14244.4,4920.8 H 13856 c -51.3,0 -93,41.7 -93,93 v 323.3 c 0,51.4 41.7,93 93,93 h 388.4 c 51.4,0 93,-41.6 93,-93 v -323.3 c 0,-51.3 -41.6,-93 -93,-93" /><path
         id="path108"
         style="fill:#e4e6ed;fill-opacity:1;fill-rule:nonzero;stroke:none"
         d="m 15014.9,4920.8 h -388.3 c -51.4,0 -93,41.7 -93,93 v 323.3 c 0,51.4 41.6,93 93,93 h 388.3 c 51.4,0 93,-41.6 93,-93 v -323.3 c 0,-51.3 -41.6,-93 -93,-93" /><path
         id="path110"
         style="fill:#e4e6ed;fill-opacity:1;fill-rule:nonzero;stroke:none"
         d="m 15785.5,4920.8 h -388.4 c -51.4,0 -93,41.7 -93,93 v 323.3 c 0,51.4 41.6,93 93,93 h 388.4 c 51.3,0 93,-41.6 93,-93 v -323.3 c 0,-51.3 -41.7,-93 -93,-93" /><g
         transform="scale(1.02141)"
         id="g112"><path
           id="path114"
           style="fill:#e4e6ed;fill-opacity:1;fill-rule:nonzero;stroke:none"
           d="m 16208.9,4817.65 h -380.2 c -50.2,0 -91.1,40.82 -91.1,91.05 v 316.52 c 0,50.32 40.9,91.05 91.1,91.05 h 380.2 c 50.4,0 91.1,-40.73 91.1,-91.05 V 4908.7 c 0,-50.23 -40.7,-91.05 -91.1,-91.05" /></g><g
         transform="scale(1.06868)"
         id="g116"><path
           id="path118"
           style="fill:#e4e6ed;fill-opacity:1;fill-rule:nonzero;stroke:none"
           d="m 16213,4604.56 h -363.5 c -48,0 -86.9,39.01 -86.9,87.02 v 302.52 c 0,48.1 38.9,87.02 86.9,87.02 h 363.5 c 48.1,0 87,-38.92 87,-87.02 v -302.52 c 0,-48.01 -38.9,-87.02 -87,-87.02" /></g><g
         transform="scale(1.11595)"
         id="g120"><path
           id="path122"
           style="fill:#e4e6ed;fill-opacity:1;fill-rule:nonzero;stroke:none"
           d="m 16216.8,4409.51 h -348.1 c -46.1,0 -83.3,37.37 -83.3,83.34 v 289.71 c 0,46.06 37.2,83.34 83.3,83.34 h 348.1 c 45.9,0 83.2,-37.28 83.2,-83.34 v -289.71 c 0,-45.97 -37.3,-83.34 -83.2,-83.34" /></g><path
         id="path124"
         style="fill:#e4e6ed;fill-opacity:1;fill-rule:nonzero;stroke:none"
         d="M 12703.4,4263.8 H 12315 c -51.4,0 -93,41.6 -93,93 v 323.3 c 0,51.3 41.6,92.9 93,92.9 h 388.4 c 51.3,0 92.9,-41.6 92.9,-92.9 v -323.3 c 0,-51.4 -41.6,-93 -92.9,-93" /><path
         id="path126"
         style="fill:#e4e6ed;fill-opacity:1;fill-rule:nonzero;stroke:none"
         d="m 13473.9,4263.8 h -388.4 c -51.4,0 -93,41.6 -93,93 v 323.3 c 0,51.3 41.6,92.9 93,92.9 h 388.4 c 51.3,0 93,-41.6 93,-92.9 v -323.3 c 0,-51.4 -41.7,-93 -93,-93" /><path
         id="path128"
         style="fill:#e4e6ed;fill-opacity:1;fill-rule:nonzero;stroke:none"
         d="M 14244.4,4263.8 H 13856 c -51.3,0 -93,41.6 -93,93 v 323.3 c 0,51.3 41.7,92.9 93,92.9 h 388.4 c 51.4,0 93,-41.6 93,-92.9 v -323.3 c 0,-51.4 -41.6,-93 -93,-93" /><path
         id="path130"
         style="fill:#e4e6ed;fill-opacity:1;fill-rule:nonzero;stroke:none"
         d="m 15014.9,4263.8 h -388.3 c -51.4,0 -93,41.6 -93,93 v 323.3 c 0,51.3 41.6,92.9 93,92.9 h 388.3 c 51.4,0 93,-41.6 93,-92.9 v -323.3 c 0,-51.4 -41.6,-93 -93,-93" /><path
         id="path132"
         style="fill:#e4e6ed;fill-opacity:1;fill-rule:nonzero;stroke:none"
         d="m 15785.5,4263.8 h -388.4 c -51.4,0 -93,41.6 -93,93 v 323.3 c 0,51.3 41.6,92.9 93,92.9 h 388.4 c 51.3,0 93,-41.6 93,-92.9 v -323.3 c 0,-51.4 -41.7,-93 -93,-93" /><g
         transform="scale(1.02141)"
         id="g134"><path
           id="path136"
           style="fill:#e4e6ed;fill-opacity:1;fill-rule:nonzero;stroke:none"
           d="m 16208.9,4174.42 h -380.2 c -50.2,0 -91.1,40.73 -91.1,91.05 V 4582 c 0,50.22 40.9,90.95 91.1,90.95 h 380.2 c 50.4,0 91.1,-40.73 91.1,-90.95 v -316.53 c 0,-50.32 -40.7,-91.05 -91.1,-91.05" /></g><g
         transform="scale(1.06868)"
         id="g138"><path
           id="path140"
           style="fill:#e4e6ed;fill-opacity:1;fill-rule:nonzero;stroke:none"
           d="m 16213,3989.78 h -363.5 c -48,0 -86.9,38.93 -86.9,87.02 v 302.53 c 0,48 38.9,86.92 86.9,86.92 h 363.5 c 48.1,0 87,-38.92 87,-86.92 V 4076.8 c 0,-48.09 -38.9,-87.02 -87,-87.02" /></g><g
         transform="scale(1.11595)"
         id="g142"><path
           id="path144"
           style="fill:#e4e6ed;fill-opacity:1;fill-rule:nonzero;stroke:none"
           d="m 16216.8,3820.78 h -348.1 c -46.1,0 -83.3,37.28 -83.3,83.33 v 289.71 c 0,45.97 37.2,83.25 83.3,83.25 h 348.1 c 45.9,0 83.2,-37.28 83.2,-83.25 v -289.71 c 0,-46.05 -37.3,-83.33 -83.2,-83.33" /></g><path
         id="path146"
         style="fill:#e4e6ed;fill-opacity:1;fill-rule:nonzero;stroke:none"
         d="M 12703.4,3606.7 H 12315 c -51.4,0 -93,41.6 -93,93 V 4023 c 0,51.4 41.6,93 93,93 h 388.4 c 51.3,0 92.9,-41.6 92.9,-93 v -323.3 c 0,-51.4 -41.6,-93 -92.9,-93" /><path
         id="path148"
         style="fill:#e4e6ed;fill-opacity:1;fill-rule:nonzero;stroke:none"
         d="m 13473.9,3606.7 h -388.4 c -51.4,0 -93,41.6 -93,93 V 4023 c 0,51.4 41.6,93 93,93 h 388.4 c 51.3,0 93,-41.6 93,-93 v -323.3 c 0,-51.4 -41.7,-93 -93,-93" /><path
         id="path150"
         style="fill:#e4e6ed;fill-opacity:1;fill-rule:nonzero;stroke:none"
         d="M 14244.4,3606.7 H 13856 c -51.3,0 -93,41.6 -93,93 V 4023 c 0,51.4 41.7,93 93,93 h 388.4 c 51.4,0 93,-41.6 93,-93 v -323.3 c 0,-51.4 -41.6,-93 -93,-93" /><path
         id="path152"
         style="fill:#e4e6ed;fill-opacity:1;fill-rule:nonzero;stroke:none"
         d="m 15014.9,3606.7 h -388.3 c -51.4,0 -93,41.6 -93,93 V 4023 c 0,51.4 41.6,93 93,93 h 388.3 c 51.4,0 93,-41.6 93,-93 v -323.3 c 0,-51.4 -41.6,-93 -93,-93" /><path
         id="path154"
         style="fill:#e4e6ed;fill-opacity:1;fill-rule:nonzero;stroke:none"
         d="m 15785.5,3606.7 h -388.4 c -51.4,0 -93,41.6 -93,93 V 4023 c 0,51.4 41.6,93 93,93 h 388.4 c 51.3,0 93,-41.6 93,-93 v -323.3 c 0,-51.4 -41.7,-93 -93,-93" /><g
         transform="scale(1.02141)"
         id="g156"><path
           id="path158"
           style="fill:#e4e6ed;fill-opacity:1;fill-rule:nonzero;stroke:none"
           d="m 16208.9,3531.1 h -380.2 c -50.2,0 -91.1,40.72 -91.1,91.05 v 316.52 c 0,50.32 40.9,91.05 91.1,91.05 h 380.2 c 50.4,0 91.1,-40.73 91.1,-91.05 v -316.52 c 0,-50.33 -40.7,-91.05 -91.1,-91.05" /></g><g
         transform="scale(1.11595)"
         id="g160"><path
           id="path162"
           style="fill:#e4e6ed;fill-opacity:1;fill-rule:nonzero;stroke:none"
           d="m 16211.8,3231.95 h -1028.7 c -48.7,0 -88.2,39.52 -88.2,88.27 v 279.85 c 0,48.74 39.5,88.26 88.2,88.26 h 1028.7 c 48.8,0 88.2,-39.52 88.2,-88.26 v -279.85 c 0,-48.75 -39.4,-88.27 -88.2,-88.27" /></g><g
         transform="scale(1.29908)"
         id="g164"><path
           id="path166"
           style="fill:#f1f2f5;fill-opacity:1;fill-rule:nonzero;stroke:none"
           d="m 16300,3421.27 h -1100.7 v 505.82 H 16300 v -505.82" /></g><g
         transform="scale(1.40537)"
         id="g168"><path
           id="path170"
           style="fill:#ffffff;fill-opacity:1;fill-rule:nonzero;stroke:none"
           d="m 16300,3162.5 h -1017.5 v 467.57 H 16300 V 3162.5" /></g><path
         id="path172"
         style="fill:#f1f2f5;fill-opacity:1;fill-rule:nonzero;stroke:none"
         d="M 6060.3,4208.3 H 4630.33 v 657 H 6060.3 v -657" /><path
         id="path174"
         style="fill:#ffffff;fill-opacity:1;fill-rule:nonzero;stroke:none"
         d="M 7792.92,4208.3 H 6362.95 v 657 h 1429.97 v -657" /><path
         id="path176"
         style="fill:#f1f2f5;fill-opacity:1;fill-rule:nonzero;stroke:none"
         d="M 10429.9,4208.3 H 8999.98 v 657 h 1429.92 v -657" /><g
         transform="scale(1.06204)"
         id="g178"><path
           id="path180"
           style="fill:#f1f2f5;fill-opacity:1;fill-rule:nonzero;stroke:none"
           d="M 8987.67,15681.3 H 7641.23 v 618.7 h 1346.44 v -618.7" /></g><path
         id="path182"
         style="fill:#ffffff;fill-opacity:1;fill-rule:nonzero;stroke:none"
         d="M 4259.91,15633.7 H 2829.94 v 657 h 1429.97 v -657" /><path
         id="path184"
         style="fill:#f1f2f5;fill-opacity:1;fill-rule:nonzero;stroke:none"
         d="m 3156.49,10263.7 h -714.98 v 657.1 h 714.98 v -657.1" /><g
         transform="scale(1.32267)"
         id="g186"><path
           id="path188"
           style="fill:#ffffff;fill-opacity:1;fill-rule:nonzero;stroke:none"
           d="m 16300,12362.7 h -1081.1 v 496.7 H 16300 v -496.7" /></g><g
         transform="scale(1.42173)"
         id="g190"><path
           id="path192"
           style="fill:#f1f2f5;fill-opacity:1;fill-rule:nonzero;stroke:none"
           d="m 16300,11501.3 h -1005.8 v 462.2 H 16300 v -462.2" /></g><g
         transform="scale(1.65459)"
         id="g194"><path
           id="path196"
           style="fill:#f1f2f5;fill-opacity:1;fill-rule:nonzero;stroke:none"
           d="m 16300,9485.59 h -864.3 v 397.11 h 864.3 v -397.11" /></g><g
         transform="scale(1.06204)"
         id="g198"><path
           id="path200"
           style="fill:#f1f2f5;fill-opacity:1;fill-rule:nonzero;stroke:none"
           d="M 10493.9,15681.3 H 9147.44 v 618.7 h 1346.46 v -618.7" /></g><g
         transform="scale(1.36152)"
         id="g202"><path
           id="path204"
           style="fill:#ffffff;fill-opacity:1;fill-rule:nonzero;stroke:none"
           d="m 16300,1535.5 h -1050.3 v 482.62 H 16300 V 1535.5" /></g><g
         transform="scale(1.5838)"
         id="g206"><path
           id="path208"
           style="fill:#f1f2f5;fill-opacity:1;fill-rule:nonzero;stroke:none"
           d="m 16300,1862.42 h -902.9 v 414.83 h 902.9 v -414.83" /></g><g
         transform="scale(1.69009)"
         id="g210"><path
           id="path212"
           style="fill:#f1f2f5;fill-opacity:1;fill-rule:nonzero;stroke:none"
           d="m 16300,1745.29 h -846.1 v 388.74 h 846.1 v -388.74" /></g><g
         transform="scale(1.69009)"
         id="g214"><path
           id="path216"
           style="fill:#f1f2f5;fill-opacity:1;fill-rule:nonzero;stroke:none"
           d="m 16300,2629.74 h -846.1 v 388.79 h 846.1 v -388.79" /></g><path
         id="path218"
         style="fill:#f1f2f5;fill-opacity:1;fill-rule:nonzero;stroke:none"
         d="M 5452.77,2090.6 H 4022.8 v 657.1 h 1429.97 v -657.1" /><path
         id="path220"
         style="fill:#f1f2f5;fill-opacity:1;fill-rule:nonzero;stroke:none"
         d="M 4586.46,2949.7 H 3156.49 v 657 h 1429.97 v -657" /><g
         transform="scale(1.65393)"
         id="g222"><path
           id="path224"
           style="fill:#1d2238;fill-opacity:1;fill-rule:nonzero;stroke:none"
           d="M 12081.4,3705.49 V 9177.48 H 16300 V 3705.49 h -4218.6" /></g><g
         transform="scale(1.63814)"
         id="g226"><path
           id="path228"
           style="fill:#f1f2f5;fill-opacity:1;fill-rule:nonzero;stroke:none"
           d="M 16300,3898.26 H 12354.9 V 9108.82 H 16300 V 3898.26" /></g><g
         transform="scale(1.65393)"
         id="g230"><path
           id="path232"
           style="fill:#1d2238;fill-opacity:1;fill-rule:nonzero;stroke:none"
           d="m 16300,9021.89 h -4218.6 v 308.22 H 16300 v -308.22" /></g><g
         transform="scale(1.66845)"
         id="g234"><path
           id="path236"
           style="fill:#4a4e60;fill-opacity:1;fill-rule:nonzero;stroke:none"
           d="m 16300,3448.23 h -4465.6 v 225 H 16300 v -225" /></g><g
         transform="scale(1.63814)"
         id="g238"><path
           id="path240"
           style="fill:#1d2238;fill-opacity:1;fill-rule:nonzero;stroke:none"
           d="m 16300,7952.18 h -3945.1 v 169.59 H 16300 v -169.59" /></g><g
         transform="scale(1.63814)"
         id="g242"><path
           id="path244"
           style="fill:#f0c36a;fill-opacity:1;fill-rule:nonzero;stroke:none"
           d="m 16300,8121.77 h -3945.1 v 987.05 H 16300 v -987.05" /></g><g
         id="g246"><g
           clip-path="url(#clipPath252)"
           id="g248"><g
             transform="scale(1.63816)"
             id="g254"><path
               id="path256"
               style="fill:#edb248;fill-opacity:1;fill-rule:nonzero;stroke:none"
               d="m 12962.5,9214.59 -859.5,-987.68 705.1,-427.03 744.1,815.32 -536.9,-772.81 h 1029.1 l 747.3,889.67 -464.4,-859.51 H 15355 l 715.7,1040.45 -318.6,-876.12 h 648.4 v 1449.13 h -1462.6 l -903.5,-870.81 564.2,968.82 h -1289.3 l -346.8,-369.43" /></g></g></g><g
         transform="scale(1.38613)"
         id="g258"><path
           id="path260"
           style="fill:#ad6359;fill-opacity:1;fill-rule:nonzero;stroke:none"
           d="m 16258,6875.41 c -11.5,-2.53 -119.7,-24.1 -200,-40.04 -56.2,-11.26 -106.5,-42.49 -141.5,-87.94 l -91.1,-118.46 c -19.8,-25.76 -13.3,-62.99 14,-80.52 v 0 c 20.1,-12.91 46.2,-11.54 64.8,3.47 l 111,89.38 284.8,0.94 -42,233.17" /></g><g
         transform="scale(1.39556)"
         id="g262"><path
           id="path264"
           style="fill:#ad6359;fill-opacity:1;fill-rule:nonzero;stroke:none"
           d="m 16258.3,6669.99 c -18.4,-4.01 -285.3,-57.04 -285.3,-57.04 l -144.4,-187.74 c -19.7,-25.65 -13.2,-62.55 13.9,-79.96 v 0 c 20,-12.9 45.9,-11.47 64.4,3.44 l 155.2,103.4 237.9,-13.69 -41.7,231.59" /></g><g
         transform="scale(1.54299)"
         id="g266"><path
           id="path268"
           style="fill:#ad6359;fill-opacity:1;fill-rule:nonzero;stroke:none"
           d="m 15921.8,4874.89 -1050.4,878.23 161.1,312.64 1267.5,-612.64 -378.2,-578.23" /></g><g
         transform="scale(1.423)"
         id="g270"><path
           id="path272"
           style="fill:#ad6359;fill-opacity:1;fill-rule:nonzero;stroke:none"
           d="m 15799.4,6584.82 v 0 c 13.7,-165.85 127.9,-306.18 287.4,-353.41 l 118.4,-35.06 94.8,380.88 c 0,0 -34,33.87 -77.2,76.88 -114.9,114.55 -264.9,187.35 -426,206.75 l -293,35.35 c -38.5,4.63 -74.4,-20.38 -83.4,-58.12 v 0 c -9.3,-39.35 13.8,-79.27 52.6,-90.73 l 333.4,-98.52 -7,-64.02" /></g><g
         transform="scale(1.41403)"
         id="g274"><path
           id="path276"
           style="fill:#ad6359;fill-opacity:1;fill-rule:nonzero;stroke:none"
           d="m 16300,6309.48 c -164.1,-33.8 -279.1,113.43 -279.1,113.43 l -167.4,-4.1 c -52.6,-1.27 -96.6,39.96 -98.8,92.58 v 0 c -2.1,52.61 38.4,97.24 91,100.21 l 140.3,20.15 c 58.1,8.35 110.7,39.39 146.1,86.21 v 0 l 167.9,-408.48" /></g><g
         transform="scale(1.41403)"
         id="g278"><path
           id="path280"
           style="fill:#1d2238;fill-opacity:1;fill-rule:nonzero;stroke:none"
           d="m 16300,6309.48 c -25.5,-6.5 -52.4,-9.19 -79.1,-6.5 -13.3,0.98 -26.5,3.39 -39.6,6.57 -13.1,3.11 -25.8,7.43 -38.2,12.59 -24.9,10.32 -48.4,23.83 -70,39.81 -21.8,16.2 -41.7,33.81 -59.9,54.95 l 7.9,-3.67 -116.8,-4.11 -29.1,-0.84 -14.7,-0.43 -7.3,-0.14 -8.1,0.14 c -10.9,0.71 -21.7,2.69 -31.9,6.58 -10.2,3.89 -19.7,9.19 -28.4,15.77 -17,13.58 -30.1,32.11 -36.3,52.97 -3.4,10.39 -4.8,21.28 -4.8,32.11 -0.1,10.82 1.7,21.71 5,32.03 3.1,10.4 8.1,20.23 14.4,28.93 6.4,8.77 13.7,16.83 22.4,23.26 8.6,6.44 18.1,11.74 28.2,15.49 10.1,3.54 20.8,5.59 31.4,6.29 l -0.8,-0.07 78.3,9.69 39.3,4.74 c 13.1,1.56 26.2,2.76 38.7,5.09 25,4.81 49.7,13.51 72,26.87 22.3,13.16 42.4,30.35 59.5,50.36 -14.8,-21.78 -33.9,-40.95 -55.9,-56.15 -21.9,-15.21 -46.7,-26.81 -73,-33.17 -13.3,-3.25 -26.3,-5.09 -39.3,-7.36 l -38.9,-6.57 -77.9,-12.73 h -0.1 l -0.7,-0.07 c -8.8,-0.78 -17.4,-2.62 -25.6,-5.73 -8,-3.18 -15.6,-7.71 -22.5,-13.01 -13.5,-10.97 -23.7,-25.89 -28.5,-42.44 -2.6,-8.2 -4,-16.83 -3.8,-25.45 0,-8.63 1.2,-17.26 4,-25.39 5,-16.48 15.5,-31.05 29,-41.66 6.8,-5.23 14.3,-9.47 22.3,-12.66 8,-3.11 16.6,-4.74 25.1,-5.37 l 6.5,-0.21 7.3,0.14 14.5,0.28 29.2,0.64 116.9,1.48 4.8,0.07 3,-3.74 c 15.5,-19.52 34.4,-37.91 54.5,-53.96 20.2,-15.99 41.8,-30.41 65.1,-41.45 23.3,-11.17 47.9,-19.73 73.7,-23.76 6.3,-1.27 12.9,-1.62 19.4,-2.4 6.5,-0.22 13,-0.92 19.6,-0.64 13,-0.28 26.1,1.06 39.2,2.83" /></g><g
         transform="scale(1.3859)"
         id="g282"><path
           id="path284"
           style="fill:#1d2238;fill-opacity:1;fill-rule:nonzero;stroke:none"
           d="m 16300,6803.51 c -30,5.56 -59.7,12.2 -89.2,19.41 -29.4,7.22 -58.8,14.94 -88,23.09 -14.7,3.9 -29.2,8.15 -43.7,12.48 -14.5,4.33 -29.2,8.38 -43.6,12.99 l -43.5,13.57 -43.1,14.21 1.1,-0.29 c -13.7,2.89 -26.2,7.22 -39,11.98 -12.6,4.76 -24.9,10.61 -36.5,17.82 -11.7,7.08 -22.5,15.95 -31,26.85 -4.2,5.48 -7.6,11.68 -9.7,18.18 -2.2,6.49 -2.7,13.42 -2.1,19.98 1.5,-13.27 8.4,-24.6 17.5,-33.11 9.1,-8.66 20.1,-15.01 31.5,-20.42 11.5,-5.34 23.6,-9.38 35.8,-13.06 12.2,-3.54 25,-6.28 37.1,-8.37 l 0.4,-0.08 0.7,-0.21 43.8,-12.12 43.7,-12.77 c 14.6,-4.19 29,-8.95 43.4,-13.35 14.5,-4.48 29,-9.02 43.4,-13.86 28.8,-9.38 57.5,-19.26 86,-29.65 28.6,-10.32 56.9,-21.29 85,-33.27" /></g><g
         transform="scale(1.63877)"
         id="g286"><path
           id="path288"
           style="fill:#f0c36a;fill-opacity:1;fill-rule:nonzero;stroke:none"
           d="m 15777.8,6273.82 c 0,0 522.2,-410.51 515.9,-797.99 -6.2,-387.55 0.1,-1579.06 0.1,-1579.06 h -1538.4 l 224.3,1078.98 c 0,0 -274.6,312.37 -134.1,562.38 140.4,250 374.9,569.23 374.9,569.23 l 557.3,166.46" /></g><g
         transform="scale(1.39637)"
         id="g290"><path
           id="path292"
           style="fill:#1d2238;fill-opacity:1;fill-rule:nonzero;stroke:none"
           d="m 16253.7,5553.17 v 0 c -39.4,-30.87 -96.3,-23.99 -127.2,15.32 l -826.4,1053.02 c -30.9,39.38 -24.1,96.32 15.3,127.25 v 0 c 39.4,30.87 96.4,24.07 127.3,-15.32 l 826.4,-1053.01 c 30.9,-39.39 24,-96.33 -15.4,-127.26" /></g><g
         transform="scale(1.59801)"
         id="g294"><path
           id="path296"
           style="fill:#ad6359;fill-opacity:1;fill-rule:nonzero;stroke:none"
           d="m 15627.1,5134.15 -61.1,-344.12 -1186.5,378.97 -168.3,134.36 c -33,26.34 -74,40.74 -116.3,40.74 h -388.7 c 0,0 -29.6,-121.15 65.1,-175.1 0,0 -4.3,-143.74 108.6,-160.45 0,0 4,-73.02 71,-106.57 67.2,-33.54 252,-49.49 252,-49.49 l 1201.9,-667.27 c 123.5,-68.59 269.3,-85.11 405,-45.87 v 0 c 179.9,51.94 319,194.8 366.3,375.9 l 123.9,474.72 -672.9,144.18" /></g><g
         transform="scale(1.53609)"
         id="g298"><path
           id="path300"
           style="fill:#1d2238;fill-opacity:1;fill-rule:nonzero;stroke:none"
           d="m 16193.4,4983.1 c 26.5,-25.32 46.3,-56.9 62.3,-89.84 15.8,-33.13 27.8,-68.22 34.9,-104.35 2.1,-8.92 3,-18.1 4.6,-27.22 1.3,-9.05 2.7,-18.16 3,-27.34 0.6,-9.18 1.3,-18.36 1.7,-27.47 0.1,-9.18 -0.2,-18.36 -0.5,-27.54 -0.1,-18.29 -3,-36.46 -5.4,-54.49 l -1,-6.77 -1.5,-6.7 c -1.1,-4.43 -2,-8.85 -3.2,-13.28 -2.2,-8.86 -4.4,-17.65 -7.1,-26.37 -0.9,9.18 -1.4,18.23 -1.8,27.21 -0.6,8.99 0,17.84 -1.1,26.76 -1.7,17.84 -1.8,35.48 -4.1,52.99 l -2.6,26.17 c -1.3,8.72 -2.5,17.38 -3.6,26.04 -0.7,4.3 -1,8.72 -1.9,13.02 l -2.3,12.89 c -1.6,8.53 -2.6,17.25 -4.7,25.72 -6.7,34.24 -16,67.89 -26.7,101.29 -11,33.46 -23.5,66.4 -39,99.28" /></g><g
         transform="scale(1.60991)"
         id="g302"><path
           id="path304"
           style="fill:#1d2238;fill-opacity:1;fill-rule:nonzero;stroke:none"
           d="m 15578.8,5630.55 c -9.1,-42.8 -18.4,-85.66 -28,-128.39 l -28.9,-128.27 -29.6,-128.02 -30.1,-127.96 -9,14.29 c 66.1,-12.42 132,-25.72 197.9,-38.76 66,-13.17 131.7,-27.02 197.6,-40.5 l 197.2,-42.11 c 65.6,-14.66 131.4,-28.7 196.8,-43.92 l -14.3,-10.12 16.8,108.95 17.5,108.88 18.2,108.77 c 6.1,36.21 12.5,72.42 19.1,108.64 -3.4,-36.65 -6.9,-73.24 -10.7,-109.82 l -11.7,-109.63 -12.4,-109.58 -13,-109.44 -1.5,-12.55 -12.9,2.42 c -66.1,12.36 -131.9,25.9 -197.9,38.89 l -197.5,40.68 c -65.7,14.1 -131.5,27.83 -197.2,42.3 -65.6,14.54 -131.3,28.88 -196.7,44.04 l -12,2.8 3,11.49 33.9,126.96 34.4,126.84 35.1,126.71 c 11.8,42.18 23.8,84.36 35.9,126.41" /></g><g
         transform="scale(1.50734)"
         id="g306"><path
           id="path308"
           style="fill:#1d2238;fill-opacity:1;fill-rule:nonzero;stroke:none"
           d="m 15994.4,5244.41 c 20.4,-5.44 40.8,-10.94 61.2,-16.71 l 61,-17.59 60.7,-18.11 60.7,-18.64 -13.3,-7.63 c 7.4,41.27 15.6,82.33 23.4,123.46 l 24.9,123.13 3.2,-11.67 c -14.7,16.45 -27.8,32.97 -40.5,50.29 -6.4,8.49 -12.3,17.44 -18.5,26.13 -6,8.83 -11.7,17.85 -17.4,26.81 -22.3,36.42 -42.2,74.37 -58.2,113.91 -3.8,9.95 -8,19.77 -11.5,29.78 l -10,30.45 -2.3,7.57 -2,7.76 -3.9,15.52 c -2.5,10.35 -5.4,20.57 -6.8,31.18 l -5.2,31.45 c -1.1,10.55 -1.9,21.16 -2.7,31.71 l -1.2,15.86 0.2,15.92 0.7,31.58 3.3,-31.38 1.4,-15.66 2.8,-15.46 c 2,-10.28 3.5,-20.63 5.5,-30.84 l 7.7,-30.32 c 11,-40.14 25,-79.41 42.8,-116.96 17.7,-37.49 37.5,-74.11 60.3,-108.74 5.9,-8.56 11.4,-17.31 17.4,-25.8 6,-8.36 11.8,-16.99 18.2,-25.15 12.3,-16.58 25.7,-32.84 39.1,-47.63 l 4.6,-5.18 -1.3,-6.5 -26.3,-122.8 c -9.2,-40.87 -18,-81.8 -27.7,-122.53 l -2.7,-11.48 -10.5,3.85 -59.6,21.76 -59.5,22.22 -59.1,22.82 c -19.7,7.7 -39.4,15.6 -58.9,23.62" /></g><g
         transform="scale(1.52843)"
         id="g310"><path
           id="path312"
           style="fill:#1d2238;fill-opacity:1;fill-rule:nonzero;stroke:none"
           d="m 15773.6,8220.14 c 0,0 -357.6,-127.21 -361.8,-463.58 -4.2,-336.36 21.9,-862.8 361.6,-961.43 235.5,-68.4 526.6,38.56 526.6,38.56 l -526.4,1386.45" /></g><g
         transform="scale(1.58626)"
         id="g314"><path
           id="path316"
           style="fill:#ad6359;fill-opacity:1;fill-rule:nonzero;stroke:none"
           d="m 15517.6,7966.08 v 0 c 289.1,13.1 536,-199.72 570.2,-482.41 l 4.4,0.92 207.8,-1003.11 -575.8,-171.98 -76.7,370.54 c -23.2,-4.11 -47,-6.93 -71.3,-8.03 v 0 c -303.2,-13.74 -560.1,220.92 -573.8,524.12 l -8.9,196.08 c -13.8,303.2 220.9,560.13 524.1,573.87" /></g><g
         transform="scale(1.4889)"
         id="g318"><path
           id="path320"
           style="fill:#1d2238;fill-opacity:1;fill-rule:nonzero;stroke:none"
           d="m 16221.4,7916.91 c 8.5,-13.6 15.6,-27.57 22.4,-41.64 3.6,-6.98 6.5,-14.13 9.7,-21.23 3.1,-7.1 6.3,-14.19 9,-21.42 5.6,-14.36 11.2,-28.74 16.1,-43.29 l 7.2,-21.9 6.7,-22.03 7.5,-24.97 -26.2,-7.14 c -9.4,-2.56 -18.8,-5.33 -28.3,-7.73 l -7,-1.8 -1.8,-0.45 c -0.6,-0.15 -0.6,-0.21 -1,-0.31 l -1.7,-0.47 c -2.1,-0.9 -4.3,-1.81 -6.2,-3.07 -7.8,-5.28 -13.2,-15.12 -12,-26.14 0.4,-5.55 2.3,-11.15 6.2,-16.02 2,-2.28 4.1,-4.78 6.7,-6.84 2.7,-1.98 5.6,-3.66 8.9,-4.96 3.3,-1.06 6.9,-2.12 10.7,-2.55 3.4,-0.39 8.8,0.19 13.8,0.4 10,0.3 20,0.62 30.2,0.12 l 0.5,-0.02 c 0.8,-0.04 1.4,-0.72 1.4,-1.51 0,-0.64 -0.5,-1.15 -1,-1.32 l -28.3,-7.91 c -4.7,-1.3 -9.3,-2.72 -14.4,-3.73 -5,-0.77 -10.1,-0.94 -15.2,-0.3 -20.5,2.5 -38.4,18.24 -43.6,38.27 -5.6,19.87 2,42.68 18.5,55.25 4.2,3.12 8.7,5.66 13.5,7.59 5,1.76 9.6,2.88 14.3,4.18 l 28.4,7.42 -2.1,-3.45 -23.1,89.04 c -7.8,29.66 -15.3,59.41 -22.7,89.17 -0.2,0.77 0.2,1.56 1,1.75 0.6,0.16 1.2,-0.12 1.6,-0.63 l 0.3,-0.36" /></g><g
         transform="scale(1.47497)"
         id="g322"><path
           id="path324"
           style="fill:#1d2238;fill-opacity:1;fill-rule:nonzero;stroke:none"
           d="m 16214.9,7944.73 c 5.8,-21.9 28.3,-34.94 50.2,-29.13 21.9,5.81 34.9,28.28 29.1,50.18 -5.8,21.9 -28.2,34.94 -50.1,29.13 -21.9,-5.81 -35,-28.28 -29.2,-50.18" /></g><g
         transform="scale(1.50033)"
         id="g326"><path
           id="path328"
           style="fill:#1d2238;fill-opacity:1;fill-rule:nonzero;stroke:none"
           d="m 16216.4,7842.73 c 5.7,-21.53 27.7,-34.35 49.3,-28.64 21.5,5.72 34.3,27.81 28.6,49.34 -5.7,21.53 -27.8,34.35 -49.3,28.63 -21.6,-5.71 -34.4,-27.8 -28.6,-49.33" /></g><g
         transform="scale(1.47704)"
         id="g330"><path
           id="path332"
           style="fill:#1d2238;fill-opacity:1;fill-rule:nonzero;stroke:none"
           d="m 16298.6,8070.25 c 1.4,-15.65 -33.1,-31.51 -76.9,-35.43 -44,-3.93 -80.7,5.58 -82.1,21.23 -1.4,15.64 33,31.51 77,35.44 43.9,3.92 80.6,-5.59 82,-21.24" /></g><g
         transform="scale(1.50445)"
         id="g334"><path
           id="path336"
           style="fill:#1d2238;fill-opacity:1;fill-rule:nonzero;stroke:none"
           d="m 16297.7,7939.94 c -2.4,-15.25 -39,-22.29 -81.7,-15.74 -42.8,6.56 -75.6,24.23 -73.3,39.47 2.4,15.25 38.9,22.3 81.7,15.75 42.8,-6.55 75.6,-24.23 73.3,-39.48" /></g><g
         transform="scale(1.61973)"
         id="g338"><path
           id="path340"
           style="fill:#1d2238;fill-opacity:1;fill-rule:nonzero;stroke:none"
           d="m 14850.6,7653.98 c 0,0 52.2,-55.5 138.4,-119.54 240.3,-178.62 408.1,-435.87 480.7,-726.34 34,-135.94 121.7,-240.19 315.6,-224.72 514.7,41.05 233.5,802.47 233.5,802.47 0,0 -132.3,441.35 -584.3,543.78 -325.7,73.8 -639.7,-107.86 -583.9,-275.65" /></g><g
         transform="scale(1.54028)"
         id="g342"><path
           id="path344"
           style="fill:#1d2238;fill-opacity:1;fill-rule:nonzero;stroke:none"
           d="m 16114.7,6879.49 c 0,0 108,10.59 185.3,124.75 0,0 -14.2,-120.57 -176.4,-167.77 l -8.9,43.02" /></g><g
         transform="scale(1.49859)"
         id="g346"><path
           id="path348"
           style="fill:#f1f2f5;fill-opacity:1;fill-rule:nonzero;stroke:none"
           d="m 16106,7487.82 c 0,0 79,-72.93 194,3.87 0,0 -88.1,-154.61 -194,-3.87" /></g><path
         id="path350"
         style="fill:#1d2238;fill-opacity:1;fill-rule:nonzero;stroke:none"
         d="m 3393.14,5847.9 v 9050.3 H 10370.5 V 5847.9 H 3393.14" /><path
         id="path352"
         style="fill:#f1f2f5;fill-opacity:1;fill-rule:nonzero;stroke:none"
         d="M 10113.1,6105.2 H 3650.49 v 8535.6 H 10113.1 V 6105.2" /><path
         id="path354"
         style="fill:#1d2238;fill-opacity:1;fill-rule:nonzero;stroke:none"
         d="M 10370.5,14640.8 H 3393.14 v 509.8 h 6977.36 v -509.8" /><path
         id="path356"
         style="fill:#4a4e60;fill-opacity:1;fill-rule:nonzero;stroke:none"
         d="M 10607.1,5472.5 H 3156.49 v 375.4 h 7450.61 v -375.4" /><path
         id="path358"
         style="fill:#d2d6e1;fill-opacity:1;fill-rule:nonzero;stroke:none"
         d="m 3650.49,10695.5 535.53,223.5 893.7,-111.7 c 0,0 6.27,-4.1 17.69,-11.9 458.04,-311.1 733.56,-827.9 739.09,-1381.7 l 33.04,-3308.5 H 3650.49 v 4590.3" /><path
         id="path360"
         style="fill:#1d2238;fill-opacity:1;fill-rule:nonzero;stroke:none"
         d="m 7390.97,8413.5 v 0 c -54.5,35.5 -69.95,108.4 -34.5,162.9 l 947.77,1457.2 c 35.45,54.5 108.36,69.9 162.86,34.4 v 0 c 54.5,-35.4 69.95,-108.3 34.5,-162.8 L 7553.83,8448 c -35.45,-54.5 -108.36,-69.9 -162.86,-34.5" /><path
         id="path362"
         style="fill:#eb9481;fill-opacity:1;fill-rule:nonzero;stroke:none"
         d="m 5274.34,12790.8 v 0 c -426.53,19.4 -790.74,-294.6 -841.24,-711.6 l -6.53,1.3 -240.55,-1161.5 c -39.95,-192.9 39.56,-390.9 201.79,-502.7 v 0 c 158.67,-109.2 350.17,-160.4 542.18,-144.8 v 0 c 87.08,7 154.08,79.9 153.85,167.2 l -1.2,454.9 c 34.36,-6 69.41,-10.2 105.19,-11.8 v 0 c 447.3,-20.3 826.34,325.9 846.61,773.2 l 13.11,289.2 c 20.27,447.3 -325.91,826.4 -773.21,846.6" /><g
         id="g364"><g
           clip-path="url(#clipPath370)"
           id="g366"><path
             id="path372"
             style="fill:#1d2238;fill-opacity:1;fill-rule:nonzero;stroke:none"
             d="m 5082.64,10893.6 c 0,0 -220.08,51 -298.12,214.2 0,0 21.62,-297.5 292.09,-392.7 l 6.03,178.5" /></g></g><path
         id="path374"
         style="fill:#1d2238;fill-opacity:1;fill-rule:nonzero;stroke:none"
         d="m 5644.86,12121.2 c 12.47,-28 22.16,-56.4 31.15,-84.8 4.85,-14.2 8.43,-28.5 12.48,-42.8 3.98,-14.3 8.03,-28.6 11.33,-42.9 7.1,-28.7 12.97,-57.5 18.57,-86.4 l 7.6,-43.3 6.58,-43.5 -55.61,44 c 18.53,2.3 37.01,4.9 55.58,6.9 l 13.92,1.5 3.49,0.3 5.02,0.4 10.63,0.5 c 14.26,0.1 28.49,-2.2 42.09,-6.4 13.52,-4.4 26.35,-10.6 38.03,-18.4 11.45,-8.2 21.65,-17.9 30.34,-28.8 17.36,-21.9 27.01,-49.2 28.63,-76.1 0.4,-13.5 -0.78,-27 -4.03,-39.9 -3.46,-12.8 -8.79,-25 -15.61,-36 -13.89,-22 -34.52,-38.3 -56.9,-47.8 -11.26,-4.8 -23.26,-7.1 -34.91,-8 -12.61,-0.5 -21.06,0.6 -30.72,1.4 l -28.59,3.4 c -9.57,1.5 -19.11,2.8 -28.73,4.7 l -0.84,0.2 c -1.49,0.3 -2.46,1.7 -2.16,3.2 0.24,1.2 1.21,2 2.34,2.2 l 55.54,7.2 c 9.23,1.3 18.69,2.3 27.3,4.1 8.68,2.2 17,5.5 24.82,9.8 7.67,4.6 14.73,10.1 20.95,16.5 6.05,6.5 11.17,13.9 15.29,21.8 3.97,7.9 6.66,16.5 8.33,25.2 1.5,8.7 1.54,17.7 0.7,26.5 -1.3,8.8 -3.47,17.4 -7.02,25.5 -3.7,8.1 -8.34,15.7 -14.07,22.4 -5.85,6.7 -12.54,12.5 -19.91,17.4 -7.51,4.7 -15.6,8.3 -24.04,10.8 -8.52,2.3 -17.3,3.4 -26.11,3.4 -8.57,-0.4 -18.04,-1.7 -27.28,-2.8 l -55.65,-6.3 -5.4,-0.6 -0.6,5.4 -19.52,174.7 c -6.71,58.2 -12.68,116.5 -18.6,174.8 -0.15,1.5 0.95,2.8 2.46,3 1.22,0.1 2.33,-0.6 2.8,-1.6 l 0.33,-0.8" /><path
         id="path376"
         style="fill:#1d2238;fill-opacity:1;fill-rule:nonzero;stroke:none"
         d="m 5923.94,11937 c -7.97,-30 -38.79,-47.9 -68.83,-39.9 -30.05,7.9 -47.94,38.8 -39.96,68.8 7.97,30 38.79,47.9 68.83,40 30.04,-8 47.93,-38.8 39.96,-68.9" /><path
         id="path378"
         style="fill:#1d2238;fill-opacity:1;fill-rule:nonzero;stroke:none"
         d="m 5539.48,11982.1 c -7.98,-30 -38.8,-47.9 -68.84,-40 -30.04,8 -47.93,38.8 -39.96,68.9 7.98,30 38.79,47.9 68.84,39.9 30.04,-7.9 47.93,-38.8 39.96,-68.8" /><path
         id="path380"
         style="fill:#1d2238;fill-opacity:1;fill-rule:nonzero;stroke:none"
         d="m 5742.27,12211.8 c -3.26,-21.4 42.63,-46.1 102.49,-55.2 59.86,-9.2 111.04,0.7 114.3,22 3.26,21.3 -42.62,46.1 -102.49,55.2 -59.86,9.2 -111.03,-0.7 -114.3,-22" /><path
         id="path382"
         style="fill:#1d2238;fill-opacity:1;fill-rule:nonzero;stroke:none"
         d="m 5375.43,12203.8 c 0,-21.6 49.09,-39.1 109.65,-39.1 60.56,0 109.65,17.5 109.65,39.1 0,21.6 -49.09,39.1 -109.65,39.1 -60.56,0 -109.65,-17.5 -109.65,-39.1" /><path
         id="path384"
         style="fill:#1d2238;fill-opacity:1;fill-rule:nonzero;stroke:none"
         d="m 5831.27,11337.7 c -16.43,-23.5 -43.43,-36.8 -70.49,-44 -27.49,-7 -56.32,-6.8 -83.65,-1.7 l -20.31,4.6 c -6.51,2.3 -13.05,4.4 -19.47,6.9 l -9.59,3.7 c -3.1,1.4 -6.12,3.1 -9.15,4.6 -6.09,3.1 -12.05,6.4 -17.92,9.8 -11.48,7.3 -22.2,15.7 -32.47,24.5 -9.68,9.7 -18.97,19.7 -26.85,31.2 14.3,-1.1 27.18,-3.8 39.68,-6.7 12.84,-2.1 24.89,-5.3 36.84,-8.2 12.17,-2 23.54,-6.1 35.29,-7.9 5.82,-1.2 11.51,-2.7 17.25,-4 l 17.16,-3.2 c 22.8,-4.3 45.38,-7.9 68.74,-9.7 23.47,-1.7 47.32,-2.7 74.94,0.1" /><path
         id="path386"
         style="fill:#1d2238;fill-opacity:1;fill-rule:nonzero;stroke:none"
         d="m 4458.27,12203.8 c 0,0 74.86,-49.3 35.83,-220 0,0 1.13,-0.3 1.18,-0.3 120.23,-28.6 180.33,110.6 233.73,190.7 86.98,130.5 234.37,202.4 388.23,216 316.14,27.7 616.41,-181 931.16,-86.4 435.61,131 339.5,402.4 284.35,535.8 -17.36,42 -56.34,72.4 -101.69,75.1 -46.49,2.8 -96.19,-24 -98.19,-150.5 0,0 -315.78,578.2 -1000.59,540.2 -684.81,-38 -1071.18,-512.7 -1119,-1018.2 -49.45,-522.7 293.04,-795.6 293.04,-795.6 l 151.95,713.2" /><path
         id="path388"
         style="fill:#eb9481;fill-opacity:1;fill-rule:nonzero;stroke:none"
         d="m 4176.06,12060 c -4.87,-112.3 64.74,-206.5 155.49,-210.5 90.74,-3.9 168.26,83.9 173.14,196.2 4.87,112.3 -64.74,206.5 -155.49,210.4 -90.75,4 -168.26,-83.9 -173.14,-196.1" /><path
         id="path390"
         style="fill:#1d2238;fill-opacity:1;fill-rule:nonzero;stroke:none"
         d="m 4436.85,12104.4 c -14.55,12.9 -28.73,22.8 -43.32,27.4 -14.1,5.2 -27.48,4.8 -38.63,1.8 -21.9,-6 -38.72,-24.4 -49.4,-48.1 -2.74,-5.9 -4.79,-12.2 -6.49,-18.7 -0.85,-3.2 -1.65,-6.5 -2.21,-9.9 -0.3,-1.6 -0.58,-3.3 -0.76,-5 -0.24,-2 -0.52,-3.2 -0.64,-3.8 -0.41,-1.6 -0.18,-1.7 -1.84,1.2 -1.32,3 -7.55,7.3 -10.1,7.3 -2.67,0.2 -1.61,-0.7 0.45,-1.1 2.2,-0.5 5.47,-0.6 9.09,-0.4 14.84,0.9 33.69,4 52.57,6.2 9.69,0.6 19.47,1.5 29.61,1 10.04,-0.5 20.52,-1.8 29.91,-6 l 0.66,-0.3 c 1.02,-0.5 1.47,-1.7 1.01,-2.7 -0.34,-0.8 -1.08,-1.2 -1.85,-1.2 -17.72,0.1 -35.16,-6.1 -52.19,-12 -17.18,-5.9 -34.11,-12.8 -52.24,-17.3 -9.05,-2 -18.68,-4.1 -28.97,-1 -5.1,1.6 -9.88,5.7 -12.16,10.6 -2.4,4.9 -3.07,10 -3.21,14.8 0.06,19 3.88,37.6 11.29,54.9 7.61,17.2 18.98,32.9 33.81,44.8 14.7,11.9 33.24,19.5 52.34,20 19.07,0.8 38.1,-5.6 53.2,-16.9 15.11,-11.3 26.46,-26.9 33.85,-43.9 0.44,-1 -0.02,-2.2 -1.03,-2.6 -0.74,-0.3 -1.56,-0.2 -2.12,0.3 l -0.63,0.6" /><path
         id="path392"
         style="fill:#eb9481;fill-opacity:1;fill-rule:nonzero;stroke:none"
         d="m 8047.16,9210.4 h -352.55 c -123.37,0 -240.1,-55.9 -317.45,-152 l -198.78,-247 -1799.39,-686 -416.34,678.4 -954.26,-678.4 441.71,-683.4 c 191.12,-265.7 505.17,-414.9 831.91,-395.1 v 0 c 162.51,9.8 319.79,61.1 456.88,148.9 L 7518.3,8369 c 0,0 145.3,71.1 306.35,176.3 129.84,84.8 38.94,214.3 38.94,214.3 175.48,57.8 101.06,212.2 101.06,212.2 162.83,50.6 82.51,238.6 82.51,238.6" /><path
         id="path394"
         style="fill:#1d2238;fill-opacity:1;fill-rule:nonzero;stroke:none"
         d="m 7675.34,9547.7 -649.06,-127.1 c -57.94,-11.3 -114.11,26.5 -125.46,84.4 L 6696,10551.1 c -11.35,57.9 26.43,114.1 84.37,125.4 l 649.05,127.1 c 57.95,11.3 114.12,-26.4 125.46,-84.4 l 204.83,-1046 c 11.34,-57.9 -26.43,-114.1 -84.37,-125.5" /><path
         id="path396"
         style="fill:#eb9481;fill-opacity:1;fill-rule:nonzero;stroke:none"
         d="m 7149.47,10239.5 c -90.33,12.8 -180.65,25.6 -270.97,38.3 -34.44,4.9 -68.88,9.7 -103.32,14.6 -8.26,1.2 -17.55,3.8 -25.92,3.7 -44.46,-0.7 -67.21,-51.2 -88.13,-83.2 -59.12,-90.3 -105.8,-187.5 -177.27,-269.4 -100.08,-114.7 -228.06,-199.7 -352.78,-284.9 -60.92,-41.6 -120.36,-84.9 -179.93,-128.4 -12.62,-9.2 -113.34,-67 -113.34,-82.7 V 8213.4 l 949.39,1194.1 c 16.19,20.4 38.99,34.4 64.45,39.7 l 58.12,12.1 -70.05,357.8 c 33.41,50.3 50.67,104 58.28,133.3 l 259.92,28.9 c 78.08,6.2 129.95,51 131.17,136.9 1.38,96.8 -75.74,114.3 -139.62,123.3" /><path
         id="path398"
         style="fill:#1d2238;fill-opacity:1;fill-rule:nonzero;stroke:none"
         d="m 6839.72,9817.1 c 0,0 -7.84,-106.5 -93.76,-190.3 0,0 77.16,35.9 103.84,138.8 l -10.08,51.5" /><path
         id="path400"
         style="fill:#eb9481;fill-opacity:1;fill-rule:nonzero;stroke:none"
         d="m 7814.96,9811.1 c -8.72,65.4 -46.15,92.2 -81.49,102.5 33.51,20.2 72.22,61.7 61.17,144.6 -8.02,60.1 -38.74,89.6 -71.2,103.7 27.06,23.5 50.63,63.5 41.7,130.4 -18.69,140.2 -160.7,114 -160.7,114 l -182.16,-68.2 c -57.45,-21.5 -92.06,-80.2 -83.06,-140.9 v 0 c 7.53,-50.7 43.45,-90.2 89.31,-104.8 -43.19,-26.9 -67.52,-77.4 -59.81,-129.3 9.14,-61.6 60.06,-106.7 119.87,-110.7 0.47,0 0.94,0 1.4,0 -51.53,-21.3 -82.31,-74.9 -74.07,-130.4 v 0 c 8.56,-57.7 56.27,-100 112.31,-103.7 12.26,-0.8 24.56,0.8 36.5,3.8 l 151.78,37 c 0,0 115.97,20.6 98.45,152" /><path
         id="path402"
         style="fill:#1d2238;fill-opacity:1;fill-rule:nonzero;stroke:none"
         d="m 7723.44,10161.9 c -23.7,-9.5 -47.82,-17.2 -72.09,-24.3 -24.24,-7.2 -48.73,-13.4 -73.26,-19.4 -24.61,-5.6 -49.28,-11 -74.19,-15.4 -24.88,-4.5 -49.92,-8.3 -75.37,-10.4 23.7,9.5 47.82,17.3 72.08,24.4 24.24,7.2 48.73,13.3 73.27,19.3 24.62,5.6 49.28,11 74.19,15.4 24.89,4.4 49.92,8.3 75.37,10.4" /><path
         id="path404"
         style="fill:#1d2238;fill-opacity:1;fill-rule:nonzero;stroke:none"
         d="m 7744.14,9914.2 c -23.71,-9.5 -47.83,-17.2 -72.09,-24.3 -24.24,-7.2 -48.73,-13.4 -73.26,-19.4 -24.62,-5.6 -49.28,-11 -74.19,-15.4 -24.89,-4.5 -49.92,-8.3 -75.37,-10.4 23.7,9.5 47.81,17.3 72.08,24.4 24.24,7.2 48.73,13.3 73.27,19.3 24.61,5.6 49.28,11 74.19,15.4 24.89,4.4 49.92,8.3 75.37,10.4" /><path
         id="path406"
         style="fill:#1d2238;fill-opacity:1;fill-rule:nonzero;stroke:none"
         d="m 5378.99,8125.4 c -32.71,-52.6 -61.43,-106.1 -86.63,-160.9 -25.16,-54.7 -46.23,-110.8 -62.65,-168.1 -8.06,-28.7 -14.93,-57.7 -20.58,-87 -5.25,-29.4 -9.77,-58.9 -12.44,-88.7 -5.93,-59.8 -4.95,-120.2 -1.49,-182.2 -22.31,57.9 -33.42,120.6 -34.61,183.5 -0.8,31.5 1.67,63 5.52,94.3 4.35,31.3 11.01,62.2 19.42,92.6 17.41,60.6 42.78,118.8 75.02,172.5 32.66,53.3 70.97,103.6 118.44,144" /><path
         id="path408"
         style="fill:#1d2238;fill-opacity:1;fill-rule:nonzero;stroke:none"
         d="m 4540.45,9672.9 c 44.1,-66.3 87.74,-132.9 131.07,-199.8 l 129.16,-200.9 c 42.92,-67.1 85.61,-134.3 127.93,-201.7 42.46,-67.4 84.99,-134.7 126.9,-202.4 l 9.87,-15.9 -15.52,-11.1 L 4904.3,8737 4758.04,8633.9 c -48.66,-34.5 -97.6,-68.6 -146.66,-102.5 l -147.01,-102 c -98.54,-67.3 -196.8,-134.9 -296,-201.3 -49.41,-33.4 -99.1,-66.4 -148.88,-99.3 -49.64,-33.1 -99.67,-65.6 -149.64,-98.3 l -7.34,-4.7 -4.03,7.1 -50.51,90 -49.88,90.3 57.32,-85.8 56.67,-86.2 -11.36,2.4 c 47.78,35.7 95.5,71.6 143.62,106.9 47.97,35.4 96.02,70.8 144.37,105.7 96.3,70.5 193.54,139.6 290.5,209.1 l 146.24,103.1 c 48.7,34.5 97.51,68.8 146.6,102.7 l 147,102 147.69,101 -5.66,-27 c -41.06,68.2 -81.5,136.8 -122.02,205.3 -40.65,68.5 -80.93,137.2 -120.99,206 l -119.77,206.7 c -39.64,69 -78.97,138.3 -117.85,207.8" /><path
         id="path410"
         style="fill:#1d2238;fill-opacity:1;fill-rule:nonzero;stroke:none"
         d="m 5837.81,9447.5 c 5.38,-95.6 8.9,-191.2 11.48,-286.8 2.64,-95.6 4.4,-191.2 5.42,-286.8 0.78,-47.8 0.86,-95.6 1.07,-143.4 0.14,-47.8 0.59,-95.6 0.2,-143.4 l -0.64,-143.4 -1.84,-143.4 -21.28,14.7 111.82,40 c 37.23,13.5 74.73,26.3 112.11,39.3 37.34,13.2 74.98,25.6 112.46,38.4 37.6,12.5 75.25,24.9 113.06,36.8 -36.17,-16.2 -72.5,-32.1 -108.88,-47.8 -36.49,-15.3 -72.83,-31.2 -109.46,-46.2 -36.6,-15.1 -73.08,-30.6 -109.82,-45.3 l -110.11,-44.5 -20.99,-8.5 -0.29,23.1 -1.84,143.4 -0.65,143.4 c -0.38,47.8 0.06,95.6 0.21,143.4 0.21,47.8 0.28,95.6 1.06,143.4 1.03,95.6 2.79,191.2 5.43,286.8 2.57,95.6 6.1,191.2 11.48,286.8" /><path
         id="path412"
         style="fill:#1d2238;fill-opacity:1;fill-rule:nonzero;stroke:none"
         d="M 10113.1,13661.7 H 3650.49 v 271.1 h 6462.61 v -271.1" /><path
         id="path414"
         style="fill:#f0c36a;fill-opacity:1;fill-rule:nonzero;stroke:none"
         d="M 10113.1,13932.8 H 3650.49 v 708 h 6462.61 v -708" /><path
         id="path416"
         style="fill:#edb248;fill-opacity:1;fill-rule:nonzero;stroke:none"
         d="m 4340.37,14640.8 -331.97,-708 h 1319.84 l 266.49,460.6 -109.65,-460.6 h 1276.71 l 237.79,516 -117.77,-516 h 1710.5 l 115.04,395.9 v -395.9 h 1405.75 v 708 H 8077.2 l -232.72,-525.9 50.59,525.9 H 5135.94 l -404.6,-518.8 227.81,518.8 h -618.78" /><path
         id="path418"
         style="fill:#f1f2f5;fill-opacity:1;fill-rule:nonzero;stroke:none"
         d="M 9109.59,2090.6 H 7679.62 v 657.1 h 1429.97 v -657.1" /><path
         id="path420"
         style="fill:#d2d6e1;fill-opacity:1;fill-rule:nonzero;stroke:none"
         d="m 7835.6,11039.6 h 1989.36 v 2250.3 H 7835.6 Z m 2017.57,-28.2 H 7807.39 v 2306.7 h 2045.78 v -2306.7" /><path
         id="path422"
         style="fill:#ffffff;fill-opacity:1;fill-rule:nonzero;stroke:none"
         d="M 9682.77,11181.8 H 7977.8 v 1965.9 h 1704.97 v -1965.9" /><g
         id="g424"><g
           clip-path="url(#clipPath430)"
           id="g426"><path
             id="path432"
             style="fill:#e4e6ed;fill-opacity:1;fill-rule:nonzero;stroke:none"
             d="m 8632.56,13147.7 -654.76,-932.5 v -588.3 l 428.5,505.3 -428.5,-693.8 v -256.6 h 767.89 l 708.94,912.7 -497.77,-912.7 h 392.19 l 333.72,558.2 v 1407.7 h -265.85 l -724.02,-983 573.18,983 h -633.52" /></g></g><path
         id="path434"
         style="fill:#f0c36a;fill-opacity:1;fill-rule:nonzero;stroke:none"
         d="m 9714.46,7145.4 c 8.78,840 446.94,1664.3 1138.24,2141.6 3.6,-791.8 -346.2,-1591.4 -919.99,-2137.1 -67.71,-12.7 -149.47,-8.4 -218.25,-4.5" /><path
         id="path436"
         style="fill:#f0c36a;fill-opacity:1;fill-rule:nonzero;stroke:none"
         d="m 9819.1,7147.1 c -20,202 -92.91,394.8 -174.2,580.8 -77.97,178.4 -168.54,358.6 -318.02,483.3 -219.29,183 -535.83,214.9 -812.24,143.1 -276.41,-71.7 -520,-234.3 -746.09,-408.8 426.64,-191 856.58,-309.6 1323.72,-326.7 36.12,-1.3 73.15,-2.3 106.69,-15.8 29.23,-11.7 53.95,-32.2 77.68,-52.9 138.13,-120.6 260.86,-258.8 364.27,-410.3 61.31,0 116.89,7.3 178.19,7.3" /><path
         id="path438"
         style="fill:#1d2238;fill-opacity:1;fill-rule:nonzero;stroke:none"
         d="m 9714.46,7145.4 c -35.64,87.2 -72.23,173.9 -111.28,259.5 -38.58,85.8 -78.83,170.9 -123.58,253.4 -22.48,41.2 -46.02,81.8 -71.76,120.7 -12.91,19.4 -26.58,38.2 -41.55,55.7 -14.8,17.4 -31.28,34.2 -50.09,43.9 l -31.66,13.6 -32.97,11.5 c -21.96,7.7 -44.7,13.6 -67.02,20.5 l -68.11,17.3 -68.67,15.2 c -91.82,19.3 -184.65,33.8 -277.87,44.9 l -70.05,7.1 c -23.32,2.7 -46.8,3.5 -70.2,5.4 -46.81,3.8 -93.74,4.7 -140.66,6.7 -11.73,0.6 -23.47,0.6 -35.2,0.5 l -35.21,-0.1 h -35.23 l -17.61,-0.1 -17.59,-0.8 c -46.88,-2.3 -93.9,-3.4 -140.58,-8.8 -93.89,-6.4 -186.38,-24.1 -278.53,-43.4 181.81,49.8 371.5,69.2 560.17,68.1 l 70.82,-1.3 c 23.62,-0.1 47.15,-2.4 70.72,-3.6 23.55,-1.7 47.18,-2.3 70.66,-4.9 l 70.5,-6.7 c 93.84,-10.6 187.34,-24.5 279.96,-43.4 l 69.13,-15.8 68.67,-17.9 c 22.63,-7.1 45.49,-13.2 67.91,-21.2 l 33.62,-12 33.12,-14.5 c 23.13,-12.3 39.91,-30.4 55.44,-48.7 15.56,-18.4 29.42,-37.8 42.45,-57.7 26.18,-39.7 49.16,-81.1 70.91,-123 86.2,-168.1 157.35,-343 221.34,-520.1" /><path
         id="path440"
         style="fill:#1d2238;fill-opacity:1;fill-rule:nonzero;stroke:none"
         d="m 9819.1,7147.1 c 34.65,93 70.86,185.4 106.71,277.9 36.46,92.3 73.29,184.5 110.49,276.5 74.5,184 151.7,366.9 231.8,548.6 40.9,90.5 82.3,180.9 127.8,269.3 45.3,88.5 92.4,176 142.2,261.9 49.6,86.1 100.6,171.3 152.8,255.7 52.8,84.1 106,167.9 161.8,250 -52,-84.5 -103.5,-169.3 -153.4,-255 -50.5,-85.4 -99.9,-171.4 -147.8,-258.2 -47.6,-87 -95,-174 -139.4,-262.6 -44.7,-88.3 -85.3,-178.7 -125.7,-269.3 -40.9,-90.3 -80.2,-181.3 -119.5,-272.4 l -116.5,-273.9 -231.3,-548.5" /><path
         id="path442"
         style="fill:#4a4e60;fill-opacity:1;fill-rule:nonzero;stroke:none"
         d="M 10370.5,5847.9 H 9169.65 V 7208.8 H 10370.5 V 5847.9" /><path
         id="path444"
         style="fill:#1d2238;fill-opacity:1;fill-rule:nonzero;stroke:none"
         d="m 9169.65,5847.9 c 100.07,8.2 200.14,12.6 300.21,15.5 50.03,1.9 100.07,2.3 150.1,3.3 l 150.1,1.2 150.11,-1.1 c 50.03,-1.1 100.03,-1.5 150.13,-3.3 100,-3 200.1,-7.3 300.2,-15.6 -100.1,-8.4 -200.2,-12.7 -300.2,-15.6 -50.1,-1.9 -100.1,-2.3 -150.13,-3.4 l -150.11,-1 -150.1,1.1 c -50.03,1.1 -100.07,1.5 -150.1,3.3 -100.07,3 -200.14,7.3 -300.21,15.6" /></g></g></svg>